<?xml version="1.0" encoding="UTF-8"?>
<svg version="1.1" xmlns="http://www.w3.org/2000/svg" width="1600" height="454">
<path d="M0 0 C528 0 1056 0 1600 0 C1600 105.6 1600 211.2 1600 320 C1587.63293697 317.75144308 1587.63293697 317.75144308 1583.35644531 316.64648438 C1582.38598267 316.39824921 1581.41552002 316.15001404 1580.41564941 315.89425659 C1579.39676636 315.63008942 1578.3778833 315.36592224 1577.328125 315.09375 C1575.0557993 314.51330495 1572.78333228 313.93341291 1570.51074219 313.35400391 C1568.7363678 312.90024384 1568.7363678 312.90024384 1566.92614746 312.43731689 C1480.24360751 290.33564387 1392.15085733 276.06076555 1302.9140625 269.76171875 C1301.59319893 269.6668367 1301.59319893 269.6668367 1300.24565125 269.57003784 C1282.78155048 268.37995003 1265.32986914 267.83596755 1247.828125 267.796875 C1245.86563089 267.78985023 1243.90313699 267.78276343 1241.94064331 267.77561951 C1235.71042546 267.75624286 1229.48024495 267.75118572 1223.25 267.75 C1222.18782005 267.74955814 1221.12564011 267.74911629 1220.03127289 267.74866104 C1188.87617264 267.74186646 1157.85391933 267.90043798 1126.80413818 270.74353027 C1123.83698839 271.01490923 1120.86901864 271.27581787 1117.90087891 271.53613281 C1089.79270123 274.03162181 1061.84866537 277.44440706 1034 282 C1033.2039032 282.1299939 1032.4078064 282.25998779 1031.58758545 282.3939209 C943.4640709 296.86346546 858.40778617 322.81845226 735.80615234 368.31933594 C654.19546292 398.87689726 572.12252634 429.04210794 459 441 C457.80068848 441.1045752 456.60137695 441.20915039 455.36572266 441.31689453 C441.27228655 442.37736442 427.12510148 442.24452633 413 442.25 C411.95524569 442.25088371 411.95524569 442.25088371 410.88938522 442.25178528 C387.14717633 442.2659337 363.61979152 441.53887765 340 439 C339.30694763 438.92738953 338.61389526 438.85477905 337.89984131 438.77996826 C327.9034721 437.73150483 317.94511312 436.45991536 308 435 C307.30898193 434.89901001 306.61796387 434.79802002 305.90600586 434.69396973 C221.04695015 422.20727464 140.34240815 394.15546929 0 321 C0 215.07 0 109.14 0 0 Z " fill="#9D9E9E" transform="translate(0,0)"/>
<path d="M0 0 C0.66963272 -0.00175232 1.33926544 -0.00350464 2.02919006 -0.00531006 C4.24043394 -0.00970108 6.4515971 -0.00679124 8.6628418 -0.00341797 C10.23430903 -0.0040939 11.80577616 -0.00506632 13.37724304 -0.00631714 C16.68672675 -0.00779217 19.9961835 -0.00565355 23.30566406 -0.00097656 C27.43990901 0.0045956 31.57408775 0.00143285 35.70833015 -0.00442886 C57.17402558 -0.03001458 78.59828334 0.33174576 100.04956055 1.12939453 C99.71956055 2.11939453 99.38956055 3.10939453 99.04956055 4.12939453 C99.97542969 4.18490479 100.90129883 4.24041504 101.85522461 4.29760742 C112.8433087 4.96895091 123.8219147 5.74308196 134.79956055 6.56689453 C136.11336197 6.66535675 136.11336197 6.66535675 137.45370483 6.76580811 C147.43016133 7.51657587 157.40529935 8.27083266 167.36206055 9.25439453 C168.13582031 9.32972412 168.90958008 9.40505371 169.70678711 9.48266602 C172.65310655 9.78994874 175.22743521 10.18868609 178.04956055 11.12939453 C178.04956055 11.78939453 178.04956055 12.44939453 178.04956055 13.12939453 C179.00088867 13.16806641 179.00088867 13.16806641 179.97143555 13.20751953 C186.90359104 13.62881075 193.55900293 14.69928243 200.36206055 16.06689453 C201.20929688 16.23672852 202.0565332 16.4065625 202.92944336 16.58154297 C206.6045449 17.34026428 210.18309863 18.16846524 213.7878418 19.22314453 C216.90358344 20.08883562 219.70623419 20.48239129 222.92456055 20.69189453 C227.94737077 21.02720475 227.94737077 21.02720475 229.04956055 22.12939453 C230.89848001 22.36303334 232.75444086 22.54243088 234.61206055 22.69189453 C236.12993164 22.81757813 236.12993164 22.81757813 237.6784668 22.94580078 C238.8521582 23.03667969 238.8521582 23.03667969 240.04956055 23.12939453 C240.04956055 23.78939453 240.04956055 24.44939453 240.04956055 25.12939453 C240.75983398 25.26216797 241.47010742 25.39494141 242.2019043 25.53173828 C243.12100586 25.70833984 244.04010742 25.88494141 244.98706055 26.06689453 C245.90358398 26.24091797 246.82010742 26.41494141 247.7644043 26.59423828 C250.04956055 27.12939453 250.04956055 27.12939453 251.04956055 28.12939453 C254.11842672 28.41413469 257.18731352 28.57811252 260.2644043 28.75048828 C263.04956055 29.12939453 263.04956055 29.12939453 265.04956055 31.12939453 C266.94333192 31.7014602 266.94333192 31.7014602 269.11206055 32.06689453 C272.40718063 32.73332331 275.50487896 33.57190413 278.67456055 34.69189453 C282.48274246 36.01706153 286.0442585 36.70329857 290.04956055 37.12939453 C290.37956055 38.44939453 290.70956055 39.76939453 291.04956055 41.12939453 C292.40500977 41.20287109 292.40500977 41.20287109 293.7878418 41.27783203 C294.96733398 41.35259766 296.14682617 41.42736328 297.36206055 41.50439453 C298.53381836 41.57400391 299.70557617 41.64361328 300.9128418 41.71533203 C304.04956055 42.12939453 304.04956055 42.12939453 307.04956055 44.12939453 C309.09876994 44.58078912 309.09876994 44.58078912 311.23706055 44.75439453 C312.49518555 44.87814453 313.75331055 45.00189453 315.04956055 45.12939453 C315.04956055 46.11939453 315.04956055 47.10939453 315.04956055 48.12939453 C316.18393555 48.27376953 317.31831055 48.41814453 318.48706055 48.56689453 C322.04956055 49.12939453 322.04956055 49.12939453 323.04956055 50.12939453 C325.37774018 50.49700184 327.71139905 50.83181034 330.04956055 51.12939453 C330.37956055 52.11939453 330.70956055 53.10939453 331.04956055 54.12939453 C331.89518555 54.06751953 332.74081055 54.00564453 333.61206055 53.94189453 C336.99808963 54.12658703 338.96736897 54.95630128 341.9753418 56.40283203 C345.48378018 57.63177655 349.10160753 57.65489528 352.79174805 57.82080078 C353.90936523 57.97355469 353.90936523 57.97355469 355.04956055 58.12939453 C355.37956055 58.78939453 355.70956055 59.44939453 356.04956055 60.12939453 C358.36362274 60.86015101 360.69784924 61.53077711 363.04956055 62.12939453 C363.04956055 63.44939453 363.04956055 64.76939453 363.04956055 66.12939453 C363.65541992 66.22736328 364.2612793 66.32533203 364.88549805 66.42626953 C371.32614801 67.57567783 377.06412577 69.5059912 383.04956055 72.12939453 C383.04956055 72.78939453 383.04956055 73.44939453 383.04956055 74.12939453 C383.70182617 74.25056641 384.3540918 74.37173828 385.02612305 74.49658203 C389.83602397 75.41883442 394.4398152 76.4310673 399.04956055 78.12939453 C399.04956055 78.78939453 399.04956055 79.44939453 399.04956055 80.12939453 C399.91581055 80.23251953 400.78206055 80.33564453 401.67456055 80.44189453 C405.24699237 81.16961212 407.90580316 82.30162861 411.04956055 84.12939453 C411.37956055 84.78939453 411.70956055 85.44939453 412.04956055 86.12939453 C413.68999916 86.63156962 415.33422683 87.12451027 416.99487305 87.55517578 C420.4336697 88.51620831 423.72016493 89.84436464 427.04956055 91.12939453 C427.04956055 91.78939453 427.04956055 92.44939453 427.04956055 93.12939453 C427.82299805 93.16677734 428.59643555 93.20416016 429.39331055 93.24267578 C435.87197683 93.6516015 441.10838753 94.50156801 447.04956055 97.12939453 C447.04956055 97.78939453 447.04956055 98.44939453 447.04956055 99.12939453 C448.36956055 99.45939453 449.68956055 99.78939453 451.04956055 100.12939453 C451.04956055 100.78939453 451.04956055 101.44939453 451.04956055 102.12939453 C452.08081055 102.21189453 453.11206055 102.29439453 454.17456055 102.37939453 C458.38879308 103.19505244 460.61580125 104.63211504 464.04956055 107.12939453 C465.03956055 107.45939453 466.02956055 107.78939453 467.04956055 108.12939453 C467.04956055 108.78939453 467.04956055 109.44939453 467.04956055 110.12939453 C467.75081055 110.25314453 468.45206055 110.37689453 469.17456055 110.50439453 C477.92738199 112.4071818 485.68846616 116.11046654 493.04956055 121.12939453 C496.66683265 122.84759878 500.08971204 123.57685753 504.04956055 124.12939453 C504.04956055 125.11939453 504.04956055 126.10939453 504.04956055 127.12939453 C497.39630806 126.47300877 491.13361742 125.00362714 484.6706543 123.32080078 C482.38854465 122.73717285 480.10631275 122.15402279 477.82397461 121.57128906 C476.62873169 121.26467346 475.43348877 120.95805786 474.20202637 120.64215088 C387.46696152 98.45606629 299.26956652 84.19504114 209.96362305 77.89111328 C208.64275948 77.79623123 208.64275948 77.79623123 207.29521179 77.69943237 C189.83111103 76.50934456 172.37942969 75.96536208 154.87768555 75.92626953 C152.91519143 75.91924476 150.95269754 75.91215796 148.99020386 75.90501404 C142.75998601 75.88563739 136.52980549 75.88058025 130.29956055 75.87939453 C129.2373806 75.87895267 128.17520065 75.87851082 127.08083344 75.87805557 C95.92573319 75.87126099 64.90347987 76.02983251 33.85369873 78.8729248 C30.88654894 79.14430376 27.91857919 79.4052124 24.95043945 79.66552734 C-3.15773823 82.16101634 -31.10177408 85.57380159 -58.95043945 90.12939453 C-59.74653625 90.25938843 -60.54263306 90.38938232 -61.362854 90.52331543 C-149.48636856 104.99285999 -234.54265328 130.94784679 -357.14428711 176.44873047 C-438.75497653 207.00629179 -520.82791311 237.17150247 -633.95043945 249.12939453 C-635.14975098 249.23396973 -636.3490625 249.33854492 -637.5847168 249.44628906 C-651.6781529 250.50675895 -665.82533797 250.37392086 -679.95043945 250.37939453 C-680.99519377 250.38027824 -680.99519377 250.38027824 -682.06105423 250.38117981 C-705.80326312 250.39532824 -729.33064793 249.66827218 -752.95043945 247.12939453 C-753.99001801 247.02047882 -753.99001801 247.02047882 -755.05059814 246.90936279 C-765.04696735 245.86089936 -775.00532633 244.58930989 -784.95043945 243.12939453 C-785.64145752 243.02840454 -786.33247559 242.92741455 -787.04443359 242.82336426 C-871.89235057 230.33830819 -952.5619689 202.28379876 -1080.95043945 136.12939453 C-1078.95043945 135.12939453 -1078.95043945 135.12939453 -1077.19458008 135.53491211 C-1076.50557617 135.77878662 -1075.81657227 136.02266113 -1075.10668945 136.27392578 C-1074.35516602 136.53882813 -1073.60364258 136.80373047 -1072.8293457 137.07666016 C-1071.65178711 137.50495117 -1071.65178711 137.50495117 -1070.45043945 137.94189453 C-1069.27288086 138.3527832 -1069.27288086 138.3527832 -1068.0715332 138.77197266 C-1062.21246591 140.86736808 -1062.21246591 140.86736808 -1059.95043945 143.12939453 C-1058.15285401 143.91254133 -1058.15285401 143.91254133 -1056.13793945 144.56689453 C-1053.73882976 145.37897228 -1051.79173063 146.22798638 -1049.63012695 147.57080078 C-1045.417467 150.02102137 -1040.83634132 151.31359797 -1036.2277832 152.84814453 C-1032.95043945 154.12939453 -1032.95043945 154.12939453 -1031.0324707 155.58862305 C-1028.8533125 157.20127167 -1026.88783941 158.09957533 -1024.3605957 159.06298828 C-1023.04212646 159.57128174 -1023.04212646 159.57128174 -1021.69702148 160.08984375 C-1020.33746338 160.60442139 -1020.33746338 160.60442139 -1018.95043945 161.12939453 C-1017.19913347 161.80776987 -1015.44783136 162.48615524 -1013.6965332 163.16455078 C-1011.92733406 163.84120101 -1010.15780153 164.51698019 -1008.38793945 165.19189453 C-1007.50686523 165.53027344 -1006.62579102 165.86865234 -1005.71801758 166.21728516 C-1000.17269665 168.33310133 -994.59797693 170.30369311 -988.95043945 172.12939453 C-988.95043945 172.78939453 -988.95043945 173.44939453 -988.95043945 174.12939453 C-988.24918945 174.16677734 -987.54793945 174.20416016 -986.82543945 174.24267578 C-972.87014748 175.2096865 -972.87014748 175.2096865 -968.95043945 179.12939453 C-967.39399592 179.45182163 -965.829842 179.73738872 -964.26293945 180.00439453 C-960.00677034 180.81480755 -956.82952071 182.1898539 -952.95043945 184.12939453 C-946.3644014 186.10333491 -939.79020613 187.47172466 -932.95043945 188.12939453 C-932.95043945 188.78939453 -932.95043945 189.44939453 -932.95043945 190.12939453 C-932.10094727 190.08427734 -931.25145508 190.03916016 -930.3762207 189.99267578 C-926.55202515 190.14529476 -923.74522316 191.04672421 -920.13793945 192.31689453 C-911.62586368 195.18573704 -902.93387222 196.86177605 -894.1171875 198.5168457 C-893.07344971 198.71383057 -892.02971191 198.91081543 -890.9543457 199.11376953 C-890.01405518 199.28618164 -889.07376465 199.45859375 -888.10498047 199.63623047 C-885.95043945 200.12939453 -885.95043945 200.12939453 -884.95043945 201.12939453 C-882.18121558 201.58834765 -879.41803914 201.99671632 -876.63793945 202.37939453 C-869.302476 203.42089067 -862.02619142 204.65277924 -854.74560547 206.02587891 C-841.64119759 208.48774962 -828.70911018 210.06667898 -815.40942383 210.93994141 C-811.90271855 211.21011648 -808.43496309 211.65497582 -804.95043945 212.12939453 C-804.95043945 212.78939453 -804.95043945 213.44939453 -804.95043945 214.12939453 C-791.80502451 214.15275422 -778.65961466 214.17042834 -765.51418304 214.1812067 C-759.40764117 214.18638455 -753.30111368 214.19338733 -747.19458008 214.20483398 C-741.28119265 214.21584689 -735.3678189 214.22170955 -729.454422 214.22427177 C-727.21905808 214.22609338 -724.98369475 214.22964866 -722.74833679 214.23512459 C-711.14057185 214.26238109 -699.55660179 214.15472812 -687.95727539 213.68188477 C-686.50094318 213.62281621 -686.50094318 213.62281621 -685.01519012 213.56255436 C-676.51328444 213.17884179 -668.12923309 212.27650846 -659.70043945 211.12939453 C-658.3021164 210.94881855 -656.90367804 210.76913331 -655.50512695 210.59033203 C-649.1259988 209.84401384 -649.1259988 209.84401384 -642.83911133 208.59057617 C-640.60007932 208.04384253 -638.48672771 207.91627926 -636.18481445 207.81298828 C-634.85063477 207.75014648 -634.85063477 207.75014648 -633.48950195 207.68603516 C-632.56911133 207.64671875 -631.6487207 207.60740234 -630.70043945 207.56689453 C-629.76458008 207.52371094 -628.8287207 207.48052734 -627.86450195 207.43603516 C-625.55995304 207.33021403 -623.25530106 207.22812896 -620.95043945 207.12939453 C-620.95043945 205.80939453 -620.95043945 204.48939453 -620.95043945 203.12939453 C-620.32999756 203.07404541 -619.70955566 203.01869629 -619.0703125 202.96166992 C-616.25917308 202.70879105 -613.44856624 202.45040619 -610.63793945 202.19189453 C-609.17324219 202.06137695 -609.17324219 202.06137695 -607.67895508 201.92822266 C-606.74116211 201.84121094 -605.80336914 201.75419922 -604.8371582 201.66455078 C-603.9730835 201.58599854 -603.10900879 201.50744629 -602.21875 201.42651367 C-599.78957233 201.18151477 -599.78957233 201.18151477 -596.95043945 200.12939453 C-595.55604281 200.06274077 -594.15874071 200.04401254 -592.76293945 200.06689453 C-591.50481445 200.08751953 -590.24668945 200.10814453 -588.95043945 200.12939453 C-588.95043945 199.13939453 -588.95043945 198.14939453 -588.95043945 197.12939453 C-587.98106445 197.03142578 -587.01168945 196.93345703 -586.01293945 196.83251953 C-570.03174294 195.23441035 -570.03174294 195.23441035 -554.95043945 190.12939453 C-552.95083933 190.08940253 -550.94996703 190.08592654 -548.95043945 190.12939453 C-548.95043945 189.46939453 -548.95043945 188.80939453 -548.95043945 188.12939453 C-546.31043945 188.12939453 -543.67043945 188.12939453 -540.95043945 188.12939453 C-540.95043945 187.46939453 -540.95043945 186.80939453 -540.95043945 186.12939453 C-538.31043945 185.79939453 -535.67043945 185.46939453 -532.95043945 185.12939453 C-532.95043945 184.46939453 -532.95043945 183.80939453 -532.95043945 183.12939453 C-530.31043945 182.79939453 -527.67043945 182.46939453 -524.95043945 182.12939453 C-524.95043945 181.46939453 -524.95043945 180.80939453 -524.95043945 180.12939453 C-523.24887695 179.69626953 -523.24887695 179.69626953 -521.51293945 179.25439453 C-520.33731445 178.88314453 -519.16168945 178.51189453 -517.95043945 178.12939453 C-517.62043945 177.46939453 -517.29043945 176.80939453 -516.95043945 176.12939453 C-515.047032 175.92545802 -513.1434013 175.72341618 -511.23876953 175.53125 C-508.83361289 175.10887853 -507.03312248 174.38056314 -504.8371582 173.32470703 C-499.7537593 170.9876204 -494.56608924 169.15091267 -489.26293945 167.37939453 C-488.3522168 167.06357422 -487.44149414 166.74775391 -486.50317383 166.42236328 C-481.8517984 164.86177109 -477.92742714 163.70020156 -472.95043945 164.12939453 C-472.95043945 163.46939453 -472.95043945 162.80939453 -472.95043945 162.12939453 C-471.96043945 161.79939453 -470.97043945 161.46939453 -469.95043945 161.12939453 C-469.62043945 160.46939453 -469.29043945 159.80939453 -468.95043945 159.12939453 C-463.87487957 156.59639384 -458.60877934 154.72500926 -452.95043945 154.12939453 C-452.62043945 153.13939453 -452.29043945 152.14939453 -451.95043945 151.12939453 C-447.77347419 148.31633629 -444.21391248 146.77366155 -439.2590332 145.69189453 C-433.29556189 144.23886599 -427.5030034 142.01510347 -421.70825195 140.00439453 C-418.95043945 139.12939453 -418.95043945 139.12939453 -416.95043945 139.12939453 C-416.62043945 138.13939453 -416.29043945 137.14939453 -415.95043945 136.12939453 C-414.96043945 136.12939453 -413.97043945 136.12939453 -412.95043945 136.12939453 C-412.95043945 135.46939453 -412.95043945 134.80939453 -412.95043945 134.12939453 C-410.04443684 132.87274475 -408.15439361 132.12939453 -404.95043945 132.12939453 C-404.95043945 131.46939453 -404.95043945 130.80939453 -404.95043945 130.12939453 C-403.03528155 129.31334455 -401.11825111 128.50168821 -399.20043945 127.69189453 C-398.1330957 127.23943359 -397.06575195 126.78697266 -395.96606445 126.32080078 C-393.60905536 125.389599 -391.42051111 124.65098733 -388.95043945 124.12939453 C-388.95043945 123.13939453 -388.95043945 122.14939453 -388.95043945 121.12939453 C-386.2416461 119.77499785 -383.94110678 120.06438002 -380.95043945 120.12939453 C-380.62043945 119.13939453 -380.29043945 118.14939453 -379.95043945 117.12939453 C-377.64043945 116.79939453 -375.33043945 116.46939453 -372.95043945 116.12939453 C-372.62043945 115.13939453 -372.29043945 114.14939453 -371.95043945 113.12939453 C-369.83325195 112.39111328 -369.83325195 112.39111328 -367.07543945 111.81689453 C-360.48758738 110.19143234 -353.30520325 107.51874352 -348.43481445 102.59814453 C-343.21892803 97.43716218 -333.58075502 94.22533885 -326.63793945 92.12939453 C-323.65234129 91.31748477 -323.65234129 91.31748477 -321.95043945 88.12939453 C-319.92700195 87.39892578 -319.92700195 87.39892578 -317.57543945 86.94189453 C-316.80458008 86.78333984 -316.0337207 86.62478516 -315.23950195 86.46142578 C-312.95043945 86.12939453 -312.95043945 86.12939453 -308.95043945 86.12939453 C-308.95043945 85.46939453 -308.95043945 84.80939453 -308.95043945 84.12939453 C-306.04443684 82.87274475 -304.15439361 82.12939453 -300.95043945 82.12939453 C-300.95043945 81.46939453 -300.95043945 80.80939453 -300.95043945 80.12939453 C-296.08322847 74.99019235 -290.669826 73.2893323 -283.91918945 71.84033203 C-278.64922855 70.57831508 -273.91985483 68.34855643 -269.32543945 65.50439453 C-266.95043945 64.12939453 -266.95043945 64.12939453 -263.38793945 63.12939453 C-260.04781588 62.39309595 -260.04781588 62.39309595 -258.1418457 60.69189453 C-254.51461757 58.10563561 -250.29723498 57.36245752 -246.04418945 56.19189453 C-243.0886708 55.17686792 -241.3492854 54.06530529 -238.95043945 52.12939453 C-235.47718765 50.97164393 -232.58976498 51.06072801 -228.95043945 51.12939453 C-228.95043945 50.46939453 -228.95043945 49.80939453 -228.95043945 49.12939453 C-218.57686314 45.68520319 -218.57686314 45.68520319 -212.95043945 46.12939453 C-212.74418945 45.55189453 -212.53793945 44.97439453 -212.32543945 44.37939453 C-210.39213327 41.2158026 -208.37398496 39.44175364 -204.95043945 38.12939453 C-201.64683074 37.70191752 -198.40062791 37.50478311 -195.0715332 37.40283203 C-191.91616836 37.12639206 -189.84125713 36.36125152 -186.95043945 35.12939453 C-183.61612244 34.32205385 -180.26830784 33.61736682 -176.91137695 32.91064453 C-173.79405995 32.25919284 -173.79405995 32.25919284 -170.95043945 30.12939453 C-168.90178675 29.59411045 -166.8362044 29.12210308 -164.76293945 28.69189453 C-160.9425795 27.85327893 -157.27826823 27.00272142 -153.63793945 25.56689453 C-147.94528029 23.34772231 -142.47188506 22.18491242 -136.45043945 21.37939453 C-130.12119651 20.46379796 -124.06549213 18.89141834 -117.88793945 17.25439453 C-107.44385415 14.51135176 -97.01053684 12.78663907 -86.30371094 11.42285156 C-85.18552979 11.27960449 -84.06734863 11.13635742 -82.9152832 10.98876953 C-81.93164795 10.86985352 -80.9480127 10.7509375 -79.93457031 10.62841797 C-76.84809362 10.17059825 -76.84809362 10.17059825 -73.51879883 9.14257812 C-67.31276583 7.38046558 -60.90327775 6.78111379 -54.51293945 6.00439453 C-53.7877713 5.91468384 -53.06260315 5.82497314 -52.31546021 5.73254395 C-39.1683 4.13008388 -26.19653715 3.62874249 -12.95043945 4.12939453 C-12.95043945 3.13939453 -12.95043945 2.14939453 -12.95043945 1.12939453 C-8.57860974 0.29116517 -4.44875409 0.00294522 0 0 Z " fill="#42B5EB" transform="translate(1092.950439453125,191.87060546875)"/>
<path d="M0 0 C4.47502185 1.2204605 8.89774338 2.57622771 13.3125 4 C14.85357422 4.495 14.85357422 4.495 16.42578125 5 C19 6 19 6 21 8 C22.79758545 8.7831468 22.79758545 8.7831468 24.8125 9.4375 C27.21160969 10.24957775 29.15870883 11.09859185 31.3203125 12.44140625 C35.53297246 14.89162684 40.11409814 16.18420343 44.72265625 17.71875 C48 19 48 19 49.91796875 20.45922852 C52.09712695 22.07187714 54.06260004 22.9701808 56.58984375 23.93359375 C57.90831299 24.44188721 57.90831299 24.44188721 59.25341797 24.96044922 C60.61297607 25.47502686 60.61297607 25.47502686 62 26 C63.75130599 26.67837534 65.50260809 27.35676071 67.25390625 28.03515625 C69.02310539 28.71180648 70.79263792 29.38758566 72.5625 30.0625 C73.44357422 30.40087891 74.32464844 30.73925781 75.23242188 31.08789062 C80.7777428 33.2037068 86.35246252 35.17429858 92 37 C92 37.66 92 38.32 92 39 C92.70125 39.03738281 93.4025 39.07476562 94.125 39.11328125 C108.08029197 40.08029197 108.08029197 40.08029197 112 44 C114.54100092 44.53329649 117.09334021 44.96418343 119.65234375 45.40234375 C122 46 122 46 124 48 C121.36 48 118.72 48 116 48 C116 47.34 116 46.68 116 46 C112.62496331 47.1858237 110.35277269 48.27573689 108 51 C108.99 52.98 108.99 52.98 110 55 C106.3434393 54.38332953 103.22515729 53.37058996 99.8359375 51.875 C98.81443604 51.42471436 97.79293457 50.97442871 96.74047852 50.51049805 C95.62987061 50.01203369 94.5192627 49.51356934 93.375 49 C92.19929443 48.4738208 91.02358887 47.9476416 89.81225586 47.40551758 C27.14479964 19.18886235 27.14479964 19.18886235 0 1 C0 0.67 0 0.34 0 0 Z " fill="#48B5E4" transform="translate(12,327)"/>
<path d="M0 0 C0.66963272 -0.00175232 1.33926544 -0.00350464 2.02919006 -0.00531006 C4.24043394 -0.00970108 6.4515971 -0.00679124 8.6628418 -0.00341797 C10.23430903 -0.0040939 11.80577616 -0.00506632 13.37724304 -0.00631714 C16.68672675 -0.00779217 19.9961835 -0.00565355 23.30566406 -0.00097656 C27.43990901 0.0045956 31.57408775 0.00143285 35.70833015 -0.00442886 C57.17402558 -0.03001458 78.59828334 0.33174576 100.04956055 1.12939453 C99.71956055 2.11939453 99.38956055 3.10939453 99.04956055 4.12939453 C99.97542969 4.18490479 100.90129883 4.24041504 101.85522461 4.29760742 C112.8433087 4.96895091 123.8219147 5.74308196 134.79956055 6.56689453 C135.67542816 6.63253601 136.55129578 6.69817749 137.45370483 6.76580811 C147.43016133 7.51657587 157.40529935 8.27083266 167.36206055 9.25439453 C168.13582031 9.32972412 168.90958008 9.40505371 169.70678711 9.48266602 C172.65310655 9.78994874 175.22743521 10.18868609 178.04956055 11.12939453 C178.04956055 11.78939453 178.04956055 12.44939453 178.04956055 13.12939453 C179.00088867 13.16806641 179.00088867 13.16806641 179.97143555 13.20751953 C186.90359104 13.62881075 193.55900293 14.69928243 200.36206055 16.06689453 C201.20929688 16.23672852 202.0565332 16.4065625 202.92944336 16.58154297 C206.6045449 17.34026428 210.18309863 18.16846524 213.7878418 19.22314453 C216.90358344 20.08883562 219.70623419 20.48239129 222.92456055 20.69189453 C227.94737077 21.02720475 227.94737077 21.02720475 229.04956055 22.12939453 C230.89848001 22.36303334 232.75444086 22.54243088 234.61206055 22.69189453 C235.62397461 22.77568359 236.63588867 22.85947266 237.6784668 22.94580078 C238.46092773 23.00638672 239.24338867 23.06697266 240.04956055 23.12939453 C240.04956055 23.78939453 240.04956055 24.44939453 240.04956055 25.12939453 C240.75983398 25.26216797 241.47010742 25.39494141 242.2019043 25.53173828 C243.12100586 25.70833984 244.04010742 25.88494141 244.98706055 26.06689453 C245.90358398 26.24091797 246.82010742 26.41494141 247.7644043 26.59423828 C250.04956055 27.12939453 250.04956055 27.12939453 251.04956055 28.12939453 C254.11842672 28.41413469 257.18731352 28.57811252 260.2644043 28.75048828 C263.04956055 29.12939453 263.04956055 29.12939453 265.04956055 31.12939453 C266.94333192 31.7014602 266.94333192 31.7014602 269.11206055 32.06689453 C272.40718063 32.73332331 275.50487896 33.57190413 278.67456055 34.69189453 C282.48274246 36.01706153 286.0442585 36.70329857 290.04956055 37.12939453 C290.37956055 38.11939453 290.70956055 39.10939453 291.04956055 40.12939453 C285.76956055 39.46939453 280.48956055 38.80939453 275.04956055 38.12939453 C275.04956055 37.46939453 275.04956055 36.80939453 275.04956055 36.12939453 C274.27870117 36.08041016 273.5078418 36.03142578 272.71362305 35.98095703 C271.71073242 35.90619141 270.7078418 35.83142578 269.67456055 35.75439453 C268.17795898 35.64998047 268.17795898 35.64998047 266.65112305 35.54345703 C264.04956055 35.12939453 264.04956055 35.12939453 262.04956055 33.12939453 C259.55446046 32.74011189 259.55446046 32.74011189 256.73706055 32.62939453 C252.68714647 32.40838967 249.78680819 31.64869105 246.04956055 30.12939453 C243.44446891 29.54088678 240.85940212 28.99624041 238.23706055 28.50439453 C237.54418945 28.37033203 236.85131836 28.23626953 236.13745117 28.09814453 C234.44233445 27.77081165 232.74605909 27.4494886 231.04956055 27.12939453 C231.04956055 26.46939453 231.04956055 25.80939453 231.04956055 25.12939453 C229.76178711 24.99662109 228.47401367 24.86384766 227.1472168 24.72705078 C225.46880693 24.54889554 223.79042282 24.37049761 222.11206055 24.19189453 C221.26192383 24.10488281 220.41178711 24.01787109 219.53588867 23.92822266 C218.72700195 23.84121094 217.91811523 23.75419922 217.0847168 23.66455078 C216.33585205 23.58599854 215.5869873 23.50744629 214.81542969 23.42651367 C213.04956055 23.12939453 213.04956055 23.12939453 212.04956055 22.12939453 C209.79540676 21.84650272 207.54115399 21.68168263 205.27612305 21.50830078 C203.04956055 21.12939453 203.04956055 21.12939453 200.04956055 19.12939453 C197.18249143 18.6946457 194.36889923 18.34192478 191.48706055 18.06689453 C183.28562866 17.24742859 183.28562866 17.24742859 181.04956055 16.12939453 C177.81040146 15.60352832 174.56297236 15.16827253 171.3112793 14.72705078 C168.04956055 14.12939453 168.04956055 14.12939453 165.5847168 13.12939453 C162.33382131 11.84706904 159.26812971 11.48466754 155.79956055 11.06689453 C154.76968018 10.94229858 154.76968018 10.94229858 153.71899414 10.81518555 C147.64644856 10.11767269 141.56438042 9.73532767 135.45874023 9.47094727 C130.24930347 9.22926599 130.24930347 9.22926599 128.04956055 8.12939453 C126.12673176 7.98743704 124.19949132 7.90323882 122.2722168 7.84814453 C121.11915039 7.81076172 119.96608398 7.77337891 118.77807617 7.73486328 C116.96339844 7.68265625 116.96339844 7.68265625 115.11206055 7.62939453 C112.72782398 7.56058172 110.34369642 7.48784767 107.9597168 7.41064453 C106.89889893 7.38035156 105.83808105 7.35005859 104.74511719 7.31884766 C102.04956055 7.12939453 102.04956055 7.12939453 99.04956055 6.12939453 C96.31666761 5.90141891 93.59913851 5.71271266 90.86206055 5.56689453 C90.1124707 5.52371094 89.36288086 5.48052734 88.59057617 5.43603516 C86.7437768 5.33016768 84.8966922 5.22929693 83.04956055 5.12939453 C83.04956055 4.13939453 83.04956055 3.14939453 83.04956055 2.12939453 C51.36956055 2.12939453 19.68956055 2.12939453 -12.95043945 2.12939453 C-12.95043945 1.79939453 -12.95043945 1.46939453 -12.95043945 1.12939453 C-8.57860974 0.29116517 -4.44875409 0.00294522 0 0 Z " fill="#71AAC2" transform="translate(1092.950439453125,191.87060546875)"/>
<path d="M0 0 C-7.56059442 4.09532198 -15.69844918 6.03134652 -24 8 C-25.33385133 8.33125447 -26.66741656 8.66368132 -28 9 C-28 9.99 -28 10.98 -28 12 C-28.99966797 12.23783203 -28.99966797 12.23783203 -30.01953125 12.48046875 C-35.07659868 13.76064945 -39.73300349 15.23004615 -44.4375 17.5 C-49.25431517 19.80190168 -53.95598783 21.06584391 -59.14453125 22.25390625 C-63.34427198 23.35123933 -67.10129154 25.12591041 -71 27 C-72.22636825 27.52738882 -73.45538852 28.04867185 -74.6875 28.5625 C-77.94504826 29.91089609 -77.94504826 29.91089609 -80.6875 31.5 C-84.75966247 33.3439981 -88.83401803 34.22406492 -93.1953125 35.15625 C-96.11146806 36.03353357 -97.6122684 37.16971546 -100 39 C-101.97401951 39.7778066 -103.97775126 40.48293603 -106 41.125 C-107.03125 41.45757812 -108.0625 41.79015625 -109.125 42.1328125 C-111.40852146 42.82159207 -113.6793485 43.45330806 -116 44 C-116 44.66 -116 45.32 -116 46 C-119 48 -119 48 -122 48 C-122.33 48.99 -122.66 49.98 -123 51 C-126.06876827 54.26056629 -128.34086637 55.21952891 -132.6875 55.5625 C-133.45449219 55.58441406 -134.22148438 55.60632813 -135.01171875 55.62890625 C-135.99591797 55.81259766 -135.99591797 55.81259766 -137 56 C-137.66 56.99 -138.32 57.98 -139 59 C-140.91796875 59.58984375 -140.91796875 59.58984375 -143.1875 59.9375 C-147.11008605 60.68943343 -149.88141834 61.88584659 -153.2421875 63.98828125 C-155.78238504 65.45030606 -158.46461327 66.36453792 -161.21484375 67.35546875 C-164.39887264 68.50506343 -166.51767553 69.46777989 -168.8125 72 C-171.63078235 74.57671529 -174.353269 75.03671257 -178 76 C-178.33 76.66 -178.66 77.32 -179 78 C-180.82857716 78.69632218 -182.68983985 79.30781132 -184.5625 79.875 C-188.29054811 81.05598924 -191.7497505 82.2599861 -195.1875 84.125 C-199.27549174 86.31099979 -203.45995465 87.20128832 -208 88 C-208 87.34 -208 86.68 -208 86 C-205.29120665 84.64560332 -202.99066732 84.93498549 -200 85 C-199.67 84.01 -199.34 83.02 -199 82 C-195.535 81.505 -195.535 81.505 -192 81 C-191.505 79.515 -191.505 79.515 -191 78 C-188.8828125 77.26171875 -188.8828125 77.26171875 -186.125 76.6875 C-179.53714793 75.0620378 -172.35476379 72.38934899 -167.484375 67.46875 C-162.26848858 62.30776764 -152.63031557 59.09594432 -145.6875 57 C-142.70190184 56.18809024 -142.70190184 56.18809024 -141 53 C-138.9765625 52.26953125 -138.9765625 52.26953125 -136.625 51.8125 C-135.85414063 51.65394531 -135.08328125 51.49539063 -134.2890625 51.33203125 C-132 51 -132 51 -128 51 C-128 50.34 -128 49.68 -128 49 C-125.09399739 47.74335022 -123.20395416 47 -120 47 C-120 46.34 -120 45.68 -120 45 C-115.13278902 39.86079782 -109.71938655 38.15993777 -102.96875 36.7109375 C-97.6987891 35.44892055 -92.96941538 33.2191619 -88.375 30.375 C-86 29 -86 29 -82.4375 28 C-79.09737643 27.26370142 -79.09737643 27.26370142 -77.19140625 25.5625 C-73.56417812 22.97624108 -69.34679552 22.23306299 -65.09375 21.0625 C-62.13823134 20.04747339 -60.39884594 18.93591076 -58 17 C-54.52674819 15.8422494 -51.63932552 15.93133348 -48 16 C-48 15.34 -48 14.68 -48 14 C-37.62642369 10.55580866 -37.62642369 10.55580866 -32 11 C-31.79375 10.4225 -31.5875 9.845 -31.375 9.25 C-29.44169382 6.08640807 -27.4235455 4.31235911 -24 3 C-20.69639128 2.57252299 -17.45018845 2.37538857 -14.12109375 2.2734375 C-9.02608596 1.82706635 -5.2813525 -0.2456443 0 0 Z " fill="#71AAC5" transform="translate(912,227)"/>
<path d="M0 0 C1.31484375 0.18175781 1.31484375 0.18175781 2.65625 0.3671875 C12.27674922 1.63818841 21.89756106 2.54727471 31.57226562 3.30224609 C37.07290858 3.73521749 42.53128428 4.26432753 48 5 C48 5.66 48 6.32 48 7 C61.14541494 7.02335969 74.2908248 7.04103381 87.43625641 7.05181217 C93.54279829 7.05699001 99.64932577 7.0639928 105.75585938 7.07543945 C111.6692468 7.08645236 117.58262055 7.09231502 123.49601746 7.09487724 C125.73138138 7.09669885 127.96674471 7.10025413 130.20210266 7.10573006 C141.8098676 7.13298656 153.39383766 7.02533358 164.99316406 6.55249023 C165.9640522 6.5131112 166.93494034 6.47373217 167.93524933 6.43315983 C176.43715501 6.04944726 184.82120636 5.14711393 193.25 4 C194.64832305 3.81942402 196.04676141 3.63973878 197.4453125 3.4609375 C204.77459938 2.51560065 204.77459938 2.51560065 212 1 C214.08234592 0.93256652 216.16668557 0.91485528 218.25 0.9375 C219.86648438 0.95103516 219.86648438 0.95103516 221.515625 0.96484375 C222.33546875 0.97644531 223.1553125 0.98804688 224 1 C224 1.66 224 2.32 224 3 C181.32826844 8.74548908 181.32826844 8.74548908 162.4765625 8.87402344 C159.79432879 8.97551482 159.79432879 8.97551482 156.3379364 9.49879456 C152.26145252 10.01535431 148.22257687 10.14798783 144.11645508 10.14526367 C143.37183014 10.14862228 142.6272052 10.1519809 141.86001587 10.15544128 C139.41317027 10.16488437 136.96639392 10.16689281 134.51953125 10.16796875 C132.78439813 10.17119208 131.04926528 10.17455691 129.31413269 10.17805481 C125.67027155 10.18403407 122.02643405 10.18589657 118.38256836 10.18530273 C114.70673612 10.18522232 111.03103075 10.1920271 107.35522461 10.20581055 C49.26161167 10.42053722 49.26161167 10.42053722 39 7 C36.43365139 6.77281504 33.88321893 6.58391816 31.3125 6.4375 C30.61060547 6.39431641 29.90871094 6.35113281 29.18554688 6.30664062 C27.45724794 6.2008264 25.7286489 6.09993419 24 6 C24 5.34 24 4.68 24 4 C22.90945313 4.05220703 22.90945313 4.05220703 21.796875 4.10546875 C14.06715951 4.31357647 7.39793177 3.20363925 0 1 C0 0.67 0 0.34 0 0 Z " fill="#5AB0D6" transform="translate(240,399)"/>
<path d="M0 0 C1.32 0.33 2.64 0.66 4 1 C1 3 1 3 -2 3 C-2.33 3.99 -2.66 4.98 -3 6 C-6.06876827 9.26056629 -8.34086637 10.21952891 -12.6875 10.5625 C-13.45449219 10.58441406 -14.22148438 10.60632813 -15.01171875 10.62890625 C-15.66785156 10.75136719 -16.32398438 10.87382812 -17 11 C-17.66 11.99 -18.32 12.98 -19 14 C-20.91796875 14.58984375 -20.91796875 14.58984375 -23.1875 14.9375 C-27.11008605 15.68943343 -29.88141834 16.88584659 -33.2421875 18.98828125 C-35.78238504 20.45030606 -38.46461327 21.36453792 -41.21484375 22.35546875 C-44.39887264 23.50506343 -46.51767553 24.46777989 -48.8125 27 C-51.63078235 29.57671529 -54.353269 30.03671257 -58 31 C-58.33 31.66 -58.66 32.32 -59 33 C-60.82857716 33.69632218 -62.68983985 34.30781132 -64.5625 34.875 C-68.29054811 36.05598924 -71.7497505 37.2599861 -75.1875 39.125 C-79.27549174 41.31099979 -83.45995465 42.20128832 -88 43 C-88 42.34 -88 41.68 -88 41 C-85.29120665 39.64560332 -82.99066732 39.93498549 -80 40 C-79.67 39.01 -79.34 38.02 -79 37 C-75.535 36.505 -75.535 36.505 -72 36 C-71.67 35.01 -71.34 34.02 -71 33 C-68.8828125 32.26171875 -68.8828125 32.26171875 -66.125 31.6875 C-59.53714793 30.0620378 -52.35476379 27.38934899 -47.484375 22.46875 C-42.26848858 17.30776764 -32.63031557 14.09594432 -25.6875 12 C-22.70190184 11.18809024 -22.70190184 11.18809024 -21 8 C-18.9765625 7.26953125 -18.9765625 7.26953125 -16.625 6.8125 C-15.85414063 6.65394531 -15.08328125 6.49539063 -14.2890625 6.33203125 C-12 6 -12 6 -8 6 C-8 5.34 -8 4.68 -8 4 C-5.09399739 2.74335022 -3.20395416 2 0 2 C0 1.34 0 0.68 0 0 Z " fill="#70AAC3" transform="translate(792,272)"/>
<path d="M0 0 C3.79303725 1.00193437 6.71536341 1.81024227 10 4 C12.32387947 4.39387788 14.65793749 4.73486085 17 5 C17 5.99 17 6.98 17 8 C18.010625 8.103125 19.02125 8.20625 20.0625 8.3125 C24.10968424 9.01915122 27.23913927 10.38820254 31 12 C33.32189536 12.4054103 35.65515344 12.76072994 38 13 C38 13.66 38 14.32 38 15 C38.99 15 39.98 15 41 15 C41 15.66 41 16.32 41 17 C41.94875 17.12375 42.8975 17.2475 43.875 17.375 C48.62254802 18.04765054 53.30640153 19.02728241 58 20 C58 20.66 58 21.32 58 22 C58.65226562 22.03738281 59.30453125 22.07476562 59.9765625 22.11328125 C65.45665684 22.52550074 69.0942744 23.44902269 74 26 C77.01653437 26.83769696 80.04536468 27.55859659 83.09765625 28.25390625 C86 29 86 29 88.5546875 30.03125 C91.83838387 31.3321393 95.12254603 31.78832395 98.59765625 32.33984375 C101.28800923 33.079144 102.8867141 34.20883158 105 36 C96.29552233 36.69635821 87.58562419 34.31819378 79.82421875 30.39453125 C77.25772952 29.12726063 75.73320082 28.63777581 72.9375 28.5 C69 28 69 28 66.7421875 26.57421875 C63.35036815 24.6270632 59.98849314 23.97812846 56.1875 23.3125 C55.49462891 23.18294922 54.80175781 23.05339844 54.08789062 22.91992188 C52.39355236 22.60442441 50.69697842 22.30097353 49 22 C49 21.34 49 20.68 49 20 C48.2680542 19.8656958 47.5361084 19.7313916 46.78198242 19.59301758 C44.25261328 19.05384797 41.92523873 18.36708164 39.48828125 17.51171875 C38.65264648 17.21950439 37.81701172 16.92729004 36.95605469 16.6262207 C36.08368164 16.31644287 35.21130859 16.00666504 34.3125 15.6875 C33.41563477 15.37063232 32.51876953 15.05376465 31.59472656 14.72729492 C22.80195676 11.6031269 14.28674424 8.30273259 6 4 C4.845 3.4225 3.69 2.845 2.5 2.25 C1.675 1.8375 0.85 1.425 0 1 C0 0.67 0 0.34 0 0 Z " fill="#7BA8BB" transform="translate(55,344)"/>
<path d="M0 0 C1.61648438 0.01353516 1.61648438 0.01353516 3.265625 0.02734375 C4.08546875 0.03894531 4.9053125 0.05054688 5.75 0.0625 C5.75 0.7225 5.75 1.3825 5.75 2.0625 C0.49458201 2.77011006 -4.76254277 3.46286956 -10.02148438 4.14379883 C-11.79802023 4.37572132 -13.57409463 4.61121563 -15.34960938 4.85083008 C-43.70888074 8.67028775 -72.13587374 8.19494562 -100.69140625 8.13116455 C-105.84114161 8.12078533 -110.99088212 8.1163362 -116.140625 8.11132812 C-126.17709656 8.10072389 -136.21354569 8.08374245 -146.25 8.0625 C-146.25 7.7325 -146.25 7.4025 -146.25 7.0625 C-145.30104858 7.05219254 -144.35209717 7.04188507 -143.37438965 7.03126526 C-134.31667333 6.93239562 -125.25900868 6.82958275 -116.20137787 6.72316074 C-111.5476822 6.66860242 -106.89398007 6.61531046 -102.24023438 6.56518555 C-63.52546946 6.41633212 -63.52546946 6.41633212 -25 3.0625 C-23.60167695 2.88192402 -22.20323859 2.70223878 -20.8046875 2.5234375 C-1.2864688 -0.01398336 -1.2864688 -0.01398336 0 0 Z " fill="#6AACC8" transform="translate(458.25,399.9375)"/>
<path d="M0 0 C-3.76608338 3.30958842 -7.38688372 5.0911243 -12 7 C-13.17682717 7.64856253 -14.34368121 8.31554224 -15.5 9 C-20.05450654 11.66778446 -24.85446817 13.59289619 -29.8125 15.375 C-32.88464021 16.50282203 -35.72657376 17.85700262 -38.625 19.375 C-53.50417933 27 -53.50417933 27 -60 27 C-60.33 27.99 -60.66 28.98 -61 30 C-64.75907641 31.62323754 -67.92086213 32.23994929 -72 32 C-72 31.34 -72 30.68 -72 30 C-61.62642369 25.59225513 -61.62642369 25.59225513 -56 25 C-55.67 24.01 -55.34 23.02 -55 22 C-50.82303474 19.18694176 -47.26347303 17.64426702 -42.30859375 16.5625 C-36.34512244 15.10947146 -30.55256394 12.88570893 -24.7578125 10.875 C-22 10 -22 10 -20 10 C-19.67 9.01 -19.34 8.02 -19 7 C-18.01 7 -17.02 7 -16 7 C-16 6.34 -16 5.68 -16 5 C-13.09399739 3.74335022 -11.20395416 3 -8 3 C-8 2.34 -8 1.68 -8 1 C-4.93251126 -0.86240388 -3.40254489 -1.2151946 0 0 Z " fill="#58B1D8" transform="translate(696,321)"/>
<path d="M0 0 C1.98 0.66 3.96 1.32 6 2 C6 2.66 6 3.32 6 4 C6.70125 4.12375 7.4025 4.2475 8.125 4.375 C16.87782144 6.27778727 24.63890561 9.98107201 32 15 C35.6172721 16.71820425 39.04015149 17.447463 43 18 C43 18.99 43 19.98 43 21 C36.11914052 20.34664916 29.66453965 18.73500725 23 16.9375 C21.93910156 16.65583984 20.87820313 16.37417969 19.78515625 16.08398438 C17.18882599 15.39396867 14.59386689 14.69920797 12 14 C12.66 13.67 13.32 13.34 14 13 C14 11.35 14 9.7 14 8 C9.545 7.01 9.545 7.01 5 6 C5 5.34 5 4.68 5 4 C4.360625 3.71125 3.72125 3.4225 3.0625 3.125 C1 2 1 2 0 0 Z " fill="#4CB4E5" transform="translate(1554,298)"/>
<path d="M0 0 C5.00890086 0.61512818 10.00632136 1.2717552 15 2 C15 2.99 15 3.98 15 5 C18.16871762 6.0594792 21.33962775 7.11094507 24.515625 8.1484375 C31.78344092 10.53556532 38.9446972 13.02847247 46 16 C46 16.66 46 17.32 46 18 C46.886875 18.268125 47.77375 18.53625 48.6875 18.8125 C52 20 52 20 54.25390625 21.44921875 C58.56312721 23.88273329 63.24026505 24.74861371 68.015625 25.9375 C69.00046875 26.288125 69.9853125 26.63875 71 27 C71.495 28.485 71.495 28.485 72 30 C69.36 29.67 66.72 29.34 64 29 C64 28.34 64 27.68 64 27 C63.2575 26.87625 62.515 26.7525 61.75 26.625 C59.14755361 26.03353491 57.36607695 25.18303848 55 24 C53.783125 23.67 52.56625 23.34 51.3125 23 C50.219375 22.67 49.12625 22.34 48 22 C47.505 21.01 47.505 21.01 47 20 C45.17489003 19.21984379 43.31393324 18.52204594 41.4375 17.875 C40.42558594 17.52179688 39.41367188 17.16859375 38.37109375 16.8046875 C37.58863281 16.53914063 36.80617188 16.27359375 36 16 C36 15.34 36 14.68 36 14 C35.21625 13.896875 34.4325 13.79375 33.625 13.6875 C28.9676024 12.80420046 24.51807851 11.41971242 20 10 C20 9.34 20 8.68 20 8 C19.45472656 7.89042969 18.90945313 7.78085937 18.34765625 7.66796875 C12.09797741 6.35393371 5.74183591 4.87091795 0 2 C0 1.34 0 0.68 0 0 Z " fill="#7CA6B5" transform="translate(1456,256)"/>
<path d="M0 0 C1.99954746 -0.04254356 4.00041636 -0.04080783 6 0 C6.33 0.33 6.66 0.66 7 1 C8.82906235 1.20837419 10.66388134 1.36749659 12.5 1.5 C17.88888889 1.88888889 17.88888889 1.88888889 19 3 C20.84891946 3.23363881 22.70488031 3.41303635 24.5625 3.5625 C25.57441406 3.64628906 26.58632812 3.73007813 27.62890625 3.81640625 C28.80259766 3.90728516 28.80259766 3.90728516 30 4 C30 4.66 30 5.32 30 6 C30.71027344 6.13277344 31.42054687 6.26554688 32.15234375 6.40234375 C33.07144531 6.57894531 33.99054688 6.75554687 34.9375 6.9375 C35.85402344 7.11152344 36.77054688 7.28554687 37.71484375 7.46484375 C40 8 40 8 41 9 C44.06886617 9.28474016 47.13775297 9.44871799 50.21484375 9.62109375 C53 10 53 10 55 12 C56.89377137 12.57206567 56.89377137 12.57206567 59.0625 12.9375 C62.35762008 13.60392878 65.45531842 14.4425096 68.625 15.5625 C72.43318192 16.88766699 75.99469795 17.57390404 80 18 C80.495 19.485 80.495 19.485 81 21 C75.72 20.34 70.44 19.68 65 19 C65 18.34 65 17.68 65 17 C64.26394531 16.96261719 63.52789063 16.92523438 62.76953125 16.88671875 C61.30580078 16.78810547 61.30580078 16.78810547 59.8125 16.6875 C58.84957031 16.62949219 57.88664062 16.57148438 56.89453125 16.51171875 C54 16 54 16 51.66015625 14.58203125 C48.12256415 12.47817691 44.62564896 11.8253087 40.625 11 C36.32096083 10.10269148 32.2341567 9.20479763 28.203125 7.4140625 C24.76314391 5.8954367 21.71382422 5.44565891 18 5 C17.67 4.67 17.34 4.34 17 4 C14.02904548 3.71292924 11.05777744 3.55137382 8.078125 3.37890625 C5.05786197 3.0071226 2.7544618 2.25991123 0 1 C0 0.67 0 0.34 0 0 Z " fill="#7FA5B5" transform="translate(1303,211)"/>
<path d="M0 0 C2.87506421 -0.02712325 5.74986908 -0.04689851 8.625 -0.0625 C9.83736328 -0.07506836 9.83736328 -0.07506836 11.07421875 -0.08789062 C15.50341918 -0.1058955 19.63883424 0.10377338 24 1 C24 1.66 24 2.32 24 3 C24.79132324 2.99738159 25.58264648 2.99476318 26.39794922 2.99206543 C46.89239821 2.93405119 67.37401694 3.11044934 87.86523438 3.46356201 C91.51429066 3.5258472 95.16339751 3.58502589 98.8125 3.64453125 C105.87504978 3.76012452 112.93754198 3.87891817 120 4 C120 4.33 120 4.66 120 5 C109.98379773 5.0234386 99.96760225 5.04107235 89.95137787 5.05181217 C85.29765334 5.05697345 80.64394791 5.06394394 75.99023438 5.07543945 C55.96823902 5.12364325 35.99730204 5.14229823 16 4 C16 3.34 16 2.68 16 2 C10.72 1.67 5.44 1.34 0 1 C0 0.67 0 0.34 0 0 Z " fill="#8AA2A8" transform="translate(272,402)"/>
<path d="M0 0 C4.47502185 1.2204605 8.89774338 2.57622771 13.3125 4 C14.85357422 4.495 14.85357422 4.495 16.42578125 5 C19 6 19 6 21 8 C22.79758545 8.7831468 22.79758545 8.7831468 24.8125 9.4375 C27.21389173 10.29667414 29.1820591 11.11019367 31.375 12.4375 C35.36215777 14.81080819 39.67459841 16.34542891 44 18 C41.29889598 19.35055201 38.99210994 19 36 19 C35.01 19.495 35.01 19.495 34 20 C32.2668457 19.33837891 32.2668457 19.33837891 30.17578125 18.2265625 C29.40081299 17.81784912 28.62584473 17.40913574 27.82739258 16.98803711 C26.99747803 16.53823486 26.16756348 16.08843262 25.3125 15.625 C24.46776123 15.17326416 23.62302246 14.72152832 22.75268555 14.25610352 C17.20531594 11.26360145 11.72631314 8.16520809 6.3125 4.9375 C5.67159424 4.55609863 5.03068848 4.17469727 4.37036133 3.78173828 C2.89430649 2.88548156 1.44376101 1.94740073 0 1 C0 0.67 0 0.34 0 0 Z " fill="#46ADDB" transform="translate(12,327)"/>
<path d="M0 0 C-7.56059442 4.09532198 -15.69844918 6.03134652 -24 8 C-25.33385133 8.33125447 -26.66741656 8.66368132 -28 9 C-28 9.99 -28 10.98 -28 12 C-28.66644531 12.15855469 -29.33289063 12.31710938 -30.01953125 12.48046875 C-36.23292914 14.05337087 -41.77144596 16.1171943 -47.4921875 19.01171875 C-50.18599322 20.0732964 -52.13222123 20.19015737 -55 20 C-52 18 -52 18 -49 17 C-48.67 16.01 -48.34 15.02 -48 14 C-42.95526836 11.691394 -37.53728165 10.56284619 -32 11 C-31.79375 10.4225 -31.5875 9.845 -31.375 9.25 C-29.44169382 6.08640807 -27.4235455 4.31235911 -24 3 C-20.69639128 2.57252299 -17.45018845 2.37538857 -14.12109375 2.2734375 C-9.02608596 1.82706635 -5.2813525 -0.2456443 0 0 Z " fill="#5DB0D3" transform="translate(912,227)"/>
<path d="M0 0 C-5.10946043 2.0617121 -9.52229256 3.23312096 -15 4 C-15.66 4.66 -16.32 5.32 -17 6 C-19.66210564 6.34876674 -22.29890512 6.44233015 -24.98046875 6.55859375 C-28.01429664 7.00208994 -30.29822727 8.0127212 -33.06567383 9.28051758 C-36.67077793 10.62145432 -40.44122354 10.80656131 -44.25 11.125 C-45.83880445 11.27059784 -47.42736195 11.41892288 -49.015625 11.5703125 C-49.70946289 11.62977051 -50.40330078 11.68922852 -51.11816406 11.75048828 C-53.22232534 11.96922507 -53.22232534 11.96922507 -56 13 C-57.39439664 13.06665376 -58.79169875 13.08538199 -60.1875 13.0625 C-62.0746875 13.0315625 -62.0746875 13.0315625 -64 13 C-64 12.01 -64 11.02 -64 10 C-63.37955811 9.94465088 -62.75911621 9.88930176 -62.11987305 9.83227539 C-59.30873363 9.57939652 -56.49812678 9.32101166 -53.6875 9.0625 C-52.71103516 8.97548828 -51.73457031 8.88847656 -50.72851562 8.79882812 C-49.79072266 8.71181641 -48.85292969 8.62480469 -47.88671875 8.53515625 C-47.02264404 8.456604 -46.15856934 8.37805176 -45.26831055 8.29711914 C-42.83913288 8.05212023 -42.83913288 8.05212023 -40 7 C-38.60560336 6.93334624 -37.20830125 6.91461801 -35.8125 6.9375 C-33.9253125 6.9684375 -33.9253125 6.9684375 -32 7 C-32 6.01 -32 5.02 -32 4 C-30.98421875 3.89042969 -29.9684375 3.78085937 -28.921875 3.66796875 C-21.23192166 2.7953034 -13.90454151 1.68415958 -6.453125 -0.51171875 C-3.88837046 -1.02221926 -2.44361284 -0.85069699 0 0 Z " fill="#61AFD1" transform="translate(536,385)"/>
<path d="M0 0 C8.32556664 -0.33302267 17.13374713 0.34048299 25.046875 3.0390625 C29.08981299 4.35462169 32.97360285 4.44140473 37.1953125 4.65625 C40 5 40 5 41.82275391 5.96826172 C44.45880178 7.21741381 46.74544042 7.5127643 49.640625 7.8515625 C50.71054688 7.98046875 51.78046875 8.109375 52.8828125 8.2421875 C54.54957031 8.43167969 54.54957031 8.43167969 56.25 8.625 C57.37664062 8.7590625 58.50328125 8.893125 59.6640625 9.03125 C62.44199438 9.36083514 65.22055304 9.68349064 68 10 C68 10.33 68 10.66 68 11 C55.27965875 11.88884372 43.44601463 9.68542636 30.984375 7.30078125 C24.03466936 5.97272106 17.06366829 4.92802094 10.04003906 4.0769043 C5.91740851 3.52303165 3.04761628 2.93414121 0 0 Z " fill="#85A4B0" transform="translate(204,391)"/>
<path d="M0 0 C1.39456452 0.00667256 2.78911118 0.01863093 4.18359375 0.03515625 C5.2499707 0.04192383 5.2499707 0.04192383 6.33789062 0.04882812 C8.09899388 0.06064761 9.86005411 0.07858362 11.62109375 0.09765625 C11.62109375 0.42765625 11.62109375 0.75765625 11.62109375 1.09765625 C10.01427734 1.29681641 10.01427734 1.29681641 8.375 1.5 C6.97783606 1.67816185 5.58070216 1.85655944 4.18359375 2.03515625 C3.47654297 2.12216797 2.76949219 2.20917969 2.04101562 2.29882812 C-1.46708593 2.47981816 -1.46708593 2.47981816 -4.37890625 4.09765625 C-6.16491496 4.39661817 -7.96035003 4.63952504 -9.7578125 4.859375 C-24.8966209 6.80958956 -39.46358156 9.49108447 -54.16601562 13.61035156 C-56.37890625 14.09765625 -56.37890625 14.09765625 -60.37890625 14.09765625 C-60.37890625 13.43765625 -60.37890625 12.77765625 -60.37890625 12.09765625 C-56.13567997 10.15457416 -51.89354704 9.40922737 -47.31640625 8.72265625 C-40.3068947 7.61335282 -33.33861316 6.36118632 -26.37890625 4.97265625 C-25.51257568 4.8020166 -24.64624512 4.63137695 -23.75366211 4.45556641 C-22.94936768 4.29362793 -22.14507324 4.13168945 -21.31640625 3.96484375 C-20.60355469 3.82159668 -19.89070312 3.67834961 -19.15625 3.53076172 C-17.28952737 3.14577536 -17.28952737 3.14577536 -15.37890625 2.09765625 C-12.52682847 1.78509978 -9.67393771 1.58728143 -6.8125 1.37890625 C-3.51368267 0.99766251 -3.66548114 0.10593876 0 0 Z " fill="#84A4B1" transform="translate(1020.37890625,198.90234375)"/>
<path d="M0 0 C9.32814473 -0.22328006 18.24372249 0.1324776 27.5078125 1.42578125 C33.92852406 2.29276867 40.38871943 2.76977404 46.84399414 3.30224609 C52.57591416 3.77762223 58.28648031 4.33781772 64 5 C64 5.33 64 5.66 64 6 C61.20826945 6.02690104 58.41679652 6.04679053 55.625 6.0625 C54.43390625 6.07506836 54.43390625 6.07506836 53.21875 6.08789062 C47.2265625 6.11328125 47.2265625 6.11328125 45 5 C43.07717121 4.85804251 41.14993078 4.77384429 39.22265625 4.71875 C38.06958984 4.68136719 36.91652344 4.64398438 35.72851562 4.60546875 C34.51873047 4.57066406 33.30894531 4.53585938 32.0625 4.5 C29.67826344 4.43118719 27.29413588 4.35845314 24.91015625 4.28125 C23.84933838 4.25095703 22.78852051 4.22066406 21.69555664 4.18945312 C19 4 19 4 16 3 C13.26710707 2.77202438 10.54957796 2.58331813 7.8125 2.4375 C7.06291016 2.39431641 6.31332031 2.35113281 5.54101562 2.30664062 C3.69421625 2.20077315 1.84713166 2.0999024 0 2 C0 1.34 0 0.68 0 0 Z " fill="#59B0D8" transform="translate(1176,195)"/>
<path d="M0 0 C-2.76964705 1.84643136 -4.42667427 2.49205121 -7.5625 3.3125 C-11.29386466 4.37088998 -14.4783941 5.69683602 -17.875 7.5625 C-22.68976684 10.11914884 -27.24510048 10.91885878 -32.62890625 11.54296875 C-33.41136719 11.69378906 -34.19382812 11.84460938 -35 12 C-35.33 12.66 -35.66 13.32 -36 14 C-41.12778478 17.28704152 -46.07521088 17.66043699 -52 18 C-52 17.34 -52 16.68 -52 16 C-48.04 15.505 -48.04 15.505 -44 15 C-44 14.34 -44 13.68 -44 13 C-42.865625 12.71125 -41.73125 12.4225 -40.5625 12.125 C-39.386875 11.75375 -38.21125 11.3825 -37 11 C-36.67 10.34 -36.34 9.68 -36 9 C-34.09542809 8.79593872 -32.19068522 8.59335933 -30.28515625 8.3984375 C-27.90592102 7.98359649 -26.11481368 7.28288125 -23.9375 6.25 C-19.77100178 4.27601221 -15.54322474 2.68328892 -11.1875 1.1875 C-10.54095459 0.95643555 -9.89440918 0.72537109 -9.22827148 0.48730469 C-5.82456344 -0.66101971 -3.40577513 -1.39834092 0 0 Z " fill="#67ACCC" transform="translate(612,359)"/>
<path d="M0 0 C4.64747217 -0.45341192 7.24880516 0.43968025 11.1875 2.91015625 C13.99788955 4.60002411 16.96731369 5.76216885 20 7 C20 8.65 20 10.3 20 12 C15.13127946 11.40440894 11.40671159 9.27522585 7.1875 6.9375 C6.49462891 6.56044922 5.80175781 6.18339844 5.08789062 5.79492188 C3.38871015 4.86916148 1.69390575 3.93537688 0 3 C0 2.01 0 1.02 0 0 Z " fill="#49B4EA" transform="translate(48,345)"/>
<path d="M0 0 C0.55171875 0.14308594 1.1034375 0.28617187 1.671875 0.43359375 C4.18714769 1.0455309 6.71042508 1.56126811 9.25 2.0625 C10.14203125 2.23910156 11.0340625 2.41570312 11.953125 2.59765625 C12.62859375 2.73042969 13.3040625 2.86320312 14 3 C14.33 3.99 14.66 4.98 15 6 C16.60081486 6.51089836 18.20906137 7.00497213 19.83984375 7.41015625 C25.43291243 8.93737754 30.84147754 11.20921857 35.8125 14.1875 C38.69698005 15.82769454 40.74293764 16.60520456 44 17 C44 17.99 44 18.98 44 20 C39.74840658 18.68403061 35.9735835 16.98679175 32 15 C27.31625647 13.02872747 22.57664123 11.2043951 17.8125 9.4375 C11.55370926 7.09987936 5.74449755 4.39980468 0 1 C0 0.67 0 0.34 0 0 Z " fill="#87A4B5" transform="translate(0,320)"/>
<path d="M0 0 C0 0.66 0 1.32 0 2 C-0.64324219 2.01981934 -1.28648438 2.03963867 -1.94921875 2.06005859 C-13.56717996 2.43503202 -25.05841331 2.86952042 -36.5625 4.59765625 C-40.42683413 5.04995899 -44.11214418 5.063945 -48 5 C-48 4.34 -48 3.68 -48 3 C-31.9937251 0.60022371 -16.17407565 -0.19591747 0 0 Z " fill="#84A5B1" transform="translate(1080,194)"/>
<path d="M0 0 C-0.5625 1.828125 -0.5625 1.828125 -2 4 C-4.37004376 5.10369685 -6.53144988 5.96184846 -9 6.75 C-9.64195312 6.97042969 -10.28390625 7.19085938 -10.9453125 7.41796875 C-15.64227484 9 -15.64227484 9 -18 9 C-18.33 9.99 -18.66 10.98 -19 12 C-22.75907641 13.62323754 -25.92086213 14.23994929 -30 14 C-30 13.34 -30 12.68 -30 12 C-19.62642369 7.59225513 -19.62642369 7.59225513 -14 7 C-13.67 6.01 -13.34 5.02 -13 4 C-8.4597032 0.88411004 -5.63738908 -0.54998918 0 0 Z " fill="#61B0D1" transform="translate(654,339)"/>
<path d="M0 0 C0.53625 0.226875 1.0725 0.45375 1.625 0.6875 C0.305 1.0175 -1.015 1.3475 -2.375 1.6875 C-2.375 2.3475 -2.375 3.0075 -2.375 3.6875 C-5.46309695 5.45212683 -6.60812136 5.6875 -10.375 5.6875 C-10.375 6.3475 -10.375 7.0075 -10.375 7.6875 C-11.365 8.0175 -12.355 8.3475 -13.375 8.6875 C-13.83132813 9.17089844 -14.28765625 9.65429688 -14.7578125 10.15234375 C-16.80575986 12.09640972 -18.5347725 12.52786503 -21.25 13.25 C-24.05899367 14.02277992 -26.62596435 14.79429334 -29.3125 15.9375 C-31.375 16.6875 -31.375 16.6875 -34.375 15.6875 C-29.5045198 12.47505561 -26.1433224 11.23680564 -20.29296875 11.15625 C-18.16149147 10.87241576 -18.16149147 10.87241576 -17.11328125 8.65625 C-16.86964844 8.0065625 -16.62601563 7.356875 -16.375 6.6875 C-15.715 6.6875 -15.055 6.6875 -14.375 6.6875 C-14.375 6.0275 -14.375 5.3675 -14.375 4.6875 C-13.50875 4.419375 -12.6425 4.15125 -11.75 3.875 C-8.34132504 2.7743709 -8.34132504 2.7743709 -5.25 1 C-2.375 -0.3125 -2.375 -0.3125 0 0 Z " fill="#79A7BB" transform="translate(690.375,320.3125)"/>
<path d="M0 0 C7.60725704 0.45373234 15.21419265 0.91264618 22.8125 1.5 C24.21435547 1.60828125 24.21435547 1.60828125 25.64453125 1.71875 C28 2 28 2 31 3 C31 3.66 31 4.32 31 5 C32.24716797 5.07347656 32.24716797 5.07347656 33.51953125 5.1484375 C34.60621094 5.22320312 35.69289063 5.29796875 36.8125 5.375 C37.89144531 5.44460937 38.97039062 5.51421875 40.08203125 5.5859375 C43 6 43 6 46 8 C39.4294834 8.24794402 33.43028541 7.32388229 27 6 C27 5.34 27 4.68 27 4 C26.08734375 4.03480469 26.08734375 4.03480469 25.15625 4.0703125 C16.63808536 4.24568648 8.41332763 3.18229949 0 2 C0 1.34 0 0.68 0 0 Z " fill="#7BA6BA" transform="translate(1240,200)"/>
<path d="M0 0 C-0.5625 1.875 -0.5625 1.875 -2 4 C-6.75026204 5.88031206 -11.31191685 6.23516274 -16.37109375 6.64453125 C-20.00386953 7.13573867 -23.32726157 8.25300167 -26.7734375 9.4765625 C-29.24309521 10.0571487 -30.62603465 9.81300183 -33 9 C-27.99568729 5.99741237 -22.86624756 4.98190647 -17.19140625 3.76171875 C-14.50664704 3.12092555 -12.10729555 2.35689586 -9.5625 1.3125 C-6.07631267 0.02811519 -3.67263346 -0.27544751 0 0 Z " fill="#5BB0DA" transform="translate(949,216)"/>
<path d="M0 0 C3.6942519 0.71304494 7.34668783 1.53815147 11 2.4375 C12.5159375 2.80681641 12.5159375 2.80681641 14.0625 3.18359375 C17 4 17 4 19.55859375 5.0390625 C22.84148927 6.33121018 26.12619261 6.78890268 29.59765625 7.33984375 C32.28800923 8.079144 33.8867141 9.20883158 36 11 C26.07613553 11.79390916 16.74942967 8.4538126 8 4 C6.741875 3.649375 5.48375 3.29875 4.1875 2.9375 C3.135625 2.628125 2.08375 2.31875 1 2 C0.67 1.34 0.34 0.68 0 0 Z " fill="#78A7C0" transform="translate(124,369)"/>
<path d="M0 0 C2.66979765 0.47114076 5.08590816 1.03272692 7.625 2 C11.6693665 3.19833081 15.5081784 3.42959128 19.70703125 3.65625 C20.46371094 3.7696875 21.22039062 3.883125 22 4 C22.33 4.66 22.66 5.32 23 6 C25.3140622 6.73075648 27.64828869 7.40138258 30 8 C30 8.66 30 9.32 30 10 C27.36 10 24.72 10 22 10 C22 9.34 22 8.68 22 8 C20.75283203 7.81824219 20.75283203 7.81824219 19.48046875 7.6328125 C17.85044922 7.38144531 17.85044922 7.38144531 16.1875 7.125 C15.10855469 6.96257812 14.02960938 6.80015625 12.91796875 6.6328125 C10 6 10 6 7 4 C4.67891331 3.29187186 2.34622853 2.61975848 0 2 C0 1.34 0 0.68 0 0 Z " fill="#5DAFD3" transform="translate(1426,246)"/>
<path d="M0 0 C4.1625904 -0.26569726 7.22482633 -0.0532347 11.140625 1.4140625 C15.98435724 3.09140609 20.74388097 3.89130627 25.8125 4.5625 C27.56390765 4.80914736 29.31521028 5.05654166 31.06640625 5.3046875 C31.90703613 5.42166992 32.74766602 5.53865234 33.61376953 5.65917969 C38.42439971 6.34627195 43.21171891 7.17275631 48 8 C48 8.33 48 8.66 48 9 C45.85423363 9.02685938 43.70837355 9.04633088 41.5625 9.0625 C40.36753906 9.07410156 39.17257813 9.08570313 37.94140625 9.09765625 C35 9 35 9 34 8 C32.40302274 7.83938177 30.80141247 7.72435181 29.19921875 7.62890625 C22.84637819 7.10369973 16.94208013 5.63207924 10.8125 3.9375 C9.24145508 3.51500977 9.24145508 3.51500977 7.63867188 3.08398438 C5.09013727 2.39739286 2.54414137 1.70266151 0 1 C0 0.67 0 0.34 0 0 Z " fill="#61AFD4" transform="translate(192,390)"/>
<path d="M0 0 C-3.09736781 1.5486839 -6.42420071 1.36173097 -9.83203125 1.53515625 C-11.01341927 1.59962196 -11.01341927 1.59962196 -12.21867371 1.66539001 C-13.89395879 1.75572346 -15.56936465 1.84383959 -17.24487305 1.92993164 C-19.76451545 2.06002252 -22.28359893 2.19836546 -24.80273438 2.33789062 C-33.87988038 2.82638773 -42.90730792 3.1381557 -52 3 C-52 2.34 -52 1.68 -52 1 C-45.50435004 0.08832983 -39.22568468 -0.0250318 -32.671875 0.03515625 C-25.57396134 0.03675057 -18.47976889 -0.37373334 -11.39257812 -0.73242188 C-10.35037109 -0.78076172 -9.30816406 -0.82910156 -8.234375 -0.87890625 C-7.29819336 -0.9260376 -6.36201172 -0.97316895 -5.39746094 -1.02172852 C-3 -1 -3 -1 0 0 Z " fill="#55ABCE" transform="translate(1176,267)"/>
<path d="M0 0 C0 0.66 0 1.32 0 2 C-2.31 2 -4.62 2 -7 2 C-7 2.66 -7 3.32 -7 4 C-15.35748222 4.84327749 -23.60197746 5.12190678 -32 5 C-32 4.67 -32 4.34 -32 4 C-30.2365625 3.814375 -30.2365625 3.814375 -28.4375 3.625 C-25.65499684 3.28328909 -23.27890212 2.79022607 -20.5625 2 C-13.76814063 0.09281141 -7.02199837 -0.1276727 0 0 Z " fill="#5AB1D4" transform="translate(1040,199)"/>
<path d="M0 0 C5.66419916 1.66149842 10.13248748 3.57061618 15 7 C18.6172721 8.71820425 22.04015149 9.447463 26 10 C26 10.99 26 11.98 26 13 C20.49191603 12.40984815 15.35121931 11.43336231 10 10 C9.92910156 9.39671875 9.85820313 8.7934375 9.78515625 8.171875 C8.70384076 5.18077346 7.23061543 4.66622754 4.4375 3.25 C3.61121094 2.82203125 2.78492188 2.3940625 1.93359375 1.953125 C1.29550781 1.63859375 0.65742187 1.3240625 0 1 C0 0.67 0 0.34 0 0 Z " fill="#59ABCD" transform="translate(1571,306)"/>
<path d="M0 0 C-6.56602625 3.55659755 -13.57882955 5.54667625 -20.8125 7.1875 C-21.56208984 7.36474609 -22.31167969 7.54199219 -23.08398438 7.72460938 C-26.11816684 8.42689111 -28.87519383 9 -32 9 C-26.40767885 3.47525977 -21.84010395 2.31506736 -14.05078125 2.203125 C-8.99495417 1.86650143 -5.24389081 -0.2439019 0 0 Z " fill="#79A8BC" transform="translate(912,227)"/>
<path d="M0 0 C4.52104949 0.47589995 8.57208606 1.15214372 12.94165039 2.44287109 C17.05713726 3.55680076 21.25424733 4.31184073 25.4375 5.125 C26.35982422 5.30675781 27.28214844 5.48851562 28.23242188 5.67578125 C30.4877747 6.11984035 32.743623 6.56118018 35 7 C35.495 8.485 35.495 8.485 36 10 C30.72 9.34 25.44 8.68 20 8 C20 7.34 20 6.68 20 6 C18.89591797 5.94392578 18.89591797 5.94392578 17.76953125 5.88671875 C8.28720566 5.24788308 8.28720566 5.24788308 4 2 C2.67391178 1.31903578 1.34313399 0.64669414 0 0 Z " fill="#71AAC5" transform="translate(1348,222)"/>
<path d="M0 0 C-0.33 0.99 -0.66 1.98 -1 3 C-1.99 3 -2.98 3 -4 3 C-4 3.66 -4 4.32 -4 5 C-5.03833984 5.23783203 -5.03833984 5.23783203 -6.09765625 5.48046875 C-14.58245481 7.50385286 -22.76514619 10.15380053 -31 13 C-31.33 12.34 -31.66 11.68 -32 11 C-31.29875 10.74605469 -30.5975 10.49210937 -29.875 10.23046875 C-28.92625 9.88628906 -27.9775 9.54210937 -27 9.1875 C-25.99710938 8.82527344 -24.99421875 8.46304687 -23.9609375 8.08984375 C-21.49658125 7.18277859 -19.06237631 6.22588439 -16.625 5.25 C-13.42189221 4.14548007 -11.33052914 3.68776289 -8 4 C-8 3.34 -8 2.68 -8 2 C-4.91190305 0.23537317 -3.76687864 0 0 0 Z " fill="#83A4B5" transform="translate(624,351)"/>
<path d="M0 0 C2.31 0 4.62 0 7 0 C7.33 0.99 7.66 1.98 8 3 C8.66386719 3.01417969 9.32773438 3.02835937 10.01171875 3.04296875 C17.34832028 3.43925234 17.34832028 3.43925234 20.6875 6.3125 C21.450625 7.199375 22.21375 8.08625 23 9 C25.26986261 10.49408678 27.59409545 11.72628583 30 13 C28.375 13.75 28.375 13.75 26 14 C24.58136779 13.12179911 23.17038824 12.22642513 21.8203125 11.24609375 C15.15787785 6.6853284 7.75633467 4.02984928 0 2 C0 1.34 0 0.68 0 0 Z " fill="#80A6B4" transform="translate(1560,300)"/>
<path d="M0 0 C4.34755658 0.5244872 7.28663927 1.52066018 11 3.8125 C16.53252356 6.99789235 22.03869821 8.5731832 28.2265625 10.04296875 C29.14179687 10.35878906 30.05703125 10.67460937 31 11 C31.33 11.99 31.66 12.98 32 14 C29.36 13.67 26.72 13.34 24 13 C24 12.34 24 11.68 24 11 C23.2575 10.87625 22.515 10.7525 21.75 10.625 C19.14755361 10.03353491 17.36607695 9.18303848 15 8 C13.783125 7.67 12.56625 7.34 11.3125 7 C10.219375 6.67 9.12625 6.34 8 6 C7.67 5.34 7.34 4.68 7 4 C4.69034152 2.94647157 2.3570226 1.94280904 0 1 C0 0.67 0 0.34 0 0 Z " fill="#61AFD2" transform="translate(1496,272)"/>
<path d="M0 0 C2.87506421 -0.02712325 5.74986908 -0.04689851 8.625 -0.0625 C9.83736328 -0.07506836 9.83736328 -0.07506836 11.07421875 -0.08789062 C15.50341918 -0.1058955 19.63883424 0.10377338 24 1 C24 1.66 24 2.32 24 3 C28.95 3 33.9 3 39 3 C39 3.33 39 3.66 39 4 C31.41 4 23.82 4 16 4 C16 3.34 16 2.68 16 2 C10.72 1.67 5.44 1.34 0 1 C0 0.67 0 0.34 0 0 Z " fill="#84A4B1" transform="translate(272,402)"/>
<path d="M0 0 C2.31 0 4.62 0 7 0 C7 0.66 7 1.32 7 2 C8.98567708 1.96744792 10.97135417 1.93489583 12.95703125 1.90234375 C15 2 15 2 18 3 C19.66293944 3.19083775 21.33073736 3.34095316 23 3.46484375 C23.969375 3.54283203 24.93875 3.62082031 25.9375 3.70117188 C27.97887071 3.85870112 30.02054468 4.01234862 32.0625 4.16210938 C33.031875 4.24138672 34.00125 4.32066406 35 4.40234375 C35.886875 4.46929443 36.77375 4.53624512 37.6875 4.60522461 C40 5 40 5 43 7 C38.54116897 6.69435074 34.08304962 6.37932712 29.625 6.0625 C28.35398437 5.97548828 27.08296875 5.88847656 25.7734375 5.79882812 C23.95585938 5.66831055 23.95585938 5.66831055 22.1015625 5.53515625 C20.98088379 5.456604 19.86020508 5.37805176 18.70556641 5.29711914 C16 5 16 5 14 4 C10.62984385 3.47848039 7.2527023 3.03841355 3.87109375 2.59765625 C2.44990234 2.30181641 2.44990234 2.30181641 1 2 C0.67 1.34 0.34 0.68 0 0 Z " fill="#66AFC9" transform="translate(1260,204)"/>
<path d="M0 0 C1.32 0.33 2.64 0.66 4 1 C1 3 1 3 -2 3 C-2.33 3.99 -2.66 4.98 -3 6 C-5.27211096 8.48512136 -6.92694028 9.8831677 -10.33203125 10.25390625 C-12.56817858 10.25038476 -14.77111138 10.17481479 -17 10 C-16.67 9.01 -16.34 8.02 -16 7 C-13.36 6.67 -10.72 6.34 -8 6 C-8 5.34 -8 4.68 -8 4 C-5.09399739 2.74335022 -3.20395416 2 0 2 C0 1.34 0 0.68 0 0 Z " fill="#54B2D8" transform="translate(792,272)"/>
<path d="M0 0 C1.10408203 0.23396484 1.10408203 0.23396484 2.23046875 0.47265625 C3.20628906 0.66730469 4.18210937 0.86195313 5.1875 1.0625 C6.15042969 1.25972656 7.11335938 1.45695312 8.10546875 1.66015625 C11.03610862 2.00423947 13.16307068 1.74164697 16 1 C16.33 1.99 16.66 2.98 17 4 C1.25512528 6.29612756 1.25512528 6.29612756 -6 6 C-6 5.67 -6 5.34 -6 5 C-4.02 5 -2.04 5 0 5 C0 3.35 0 1.7 0 0 Z " fill="#4FADD6" transform="translate(488,432)"/>
<path d="M0 0 C-6.27742126 6.87736128 -15.06496565 9.3887643 -24 11 C-24 10.34 -24 9.68 -24 9 C-21.29120665 7.64560332 -18.99066732 7.93498549 -16 8 C-15.67 7.01 -15.34 6.02 -15 5 C-11.535 4.505 -11.535 4.505 -8 4 C-7.67 3.01 -7.34 2.02 -7 1 C-4.53721199 -0.231394 -2.7204945 -0.07159196 0 0 Z " fill="#79A8BC" transform="translate(728,304)"/>
<path d="M0 0 C4.46629007 1.21807911 8.89580352 2.55030652 13.3125 3.9375 C14.33988281 4.25589844 15.36726563 4.57429688 16.42578125 4.90234375 C19 6 19 6 21 9 C18.13813737 9.88263053 15.94960555 10.37213612 13.09863281 9.25488281 C11.05071768 8.11850864 9.08758568 6.90296277 7.125 5.625 C6.43664062 5.19960938 5.74828125 4.77421875 5.0390625 4.3359375 C3.33236988 3.26586832 1.6622997 2.13780819 0 1 C0 0.67 0 0.34 0 0 Z " fill="#62AED2" transform="translate(12,327)"/>
<path d="M0 0 C2.10478604 0.11409682 4.20884577 0.24165361 6.3125 0.375 C7.48425781 0.44460937 8.65601563 0.51421875 9.86328125 0.5859375 C13 1 13 1 16 3 C18.0492094 3.45139459 18.0492094 3.45139459 20.1875 3.625 C21.445625 3.74875 22.70375 3.8725 24 4 C24 4.99 24 5.98 24 7 C4.99878197 4.02314251 4.99878197 4.02314251 0 0 Z " fill="#6BABC7" transform="translate(1384,233)"/>
<path d="M0 0 C1.13598633 0.00483398 1.13598633 0.00483398 2.29492188 0.00976562 C3.47344727 0.02233398 3.47344727 0.02233398 4.67578125 0.03515625 C5.47306641 0.03966797 6.27035156 0.04417969 7.09179688 0.04882812 C9.05732382 0.06059775 11.0228121 0.07853277 12.98828125 0.09765625 C12.98828125 0.42765625 12.98828125 0.75765625 12.98828125 1.09765625 C-0.36392232 3.29684272 -13.50824098 3.31752751 -27.01171875 3.09765625 C-27.01171875 2.76765625 -27.01171875 2.43765625 -27.01171875 2.09765625 C-26.42156982 2.0726001 -25.8314209 2.04754395 -25.22338867 2.02172852 C-22.54845061 1.90565573 -19.87385495 1.78298053 -17.19921875 1.66015625 C-16.27044922 1.62083984 -15.34167969 1.58152344 -14.38476562 1.54101562 C-13.49208984 1.49912109 -12.59941406 1.45722656 -11.6796875 1.4140625 C-10.85750732 1.37740479 -10.03532715 1.34074707 -9.18823242 1.30297852 C-5.96896186 0.99928737 -3.28656437 -0.02471101 0 0 Z " fill="#87A3AE" transform="translate(419.01171875,402.90234375)"/>
<path d="M0 0 C2.31 0 4.62 0 7 0 C7 0.66 7 1.32 7 2 C8.22589844 1.92265625 8.22589844 1.92265625 9.4765625 1.84375 C13.76889791 2.03409747 17.32559502 3.1453166 21.375 4.5 C22.11105469 4.73847656 22.84710938 4.97695313 23.60546875 5.22265625 C25.40619578 5.80730788 27.2034691 6.4025788 29 7 C24.95974188 8.22327644 23.00146319 7.3589875 19 6 C17.58597409 5.84801257 16.16864488 5.72508077 14.75 5.625 C9.41347466 5.14316722 4.85192954 3.17779719 0 1 C0 0.67 0 0.34 0 0 Z " fill="#60B0D4" transform="translate(153,380)"/>
<path d="M0 0 C-4.01450949 1.76975514 -7.9535934 2.70411751 -12.25 3.5625 C-16.4481378 4.08011615 -16.4481378 4.08011615 -20 6 C-22.52596259 6.23653523 -25.03107207 6.42173692 -27.5625 6.5625 C-28.62887695 6.62727539 -28.62887695 6.62727539 -29.71679688 6.69335938 C-31.47761912 6.79971777 -33.2387832 6.90038846 -35 7 C-32.42260783 4.42260783 -30.96509578 4.56151289 -27.375 4.125 C-21.2191158 3.2808821 -15.35187769 1.91641217 -9.38232422 0.23291016 C-5.94188996 -0.69551573 -3.38443155 -1.35205026 0 0 Z " fill="#5EAFD5" transform="translate(984,209)"/>
<path d="M0 0 C7.38131962 0.62553556 7.38131962 0.62553556 10.375 2.4375 C13.7484898 4.44552964 16.94599067 4.86706 20.79296875 5.47265625 C23 6 23 6 25 8 C22.36 8 19.72 8 17 8 C17 7.34 17 6.68 17 6 C14.36 6 11.72 6 9 6 C9 5.34 9 4.68 9 4 C6.03 3.01 3.06 2.02 0 1 C0 0.67 0 0.34 0 0 Z " fill="#5DB1D5" transform="translate(111,367)"/>
<path d="M0 0 C1.37478516 0.01740234 1.37478516 0.01740234 2.77734375 0.03515625 C3.69644531 0.04417969 4.61554688 0.05320312 5.5625 0.0625 C6.27277344 0.07410156 6.98304688 0.08570313 7.71484375 0.09765625 C7.71484375 1.08765625 7.71484375 2.07765625 7.71484375 3.09765625 C8.70484375 3.42765625 9.69484375 3.75765625 10.71484375 4.09765625 C4.60430135 4.21035068 -1.23686139 3.99369993 -7.28515625 3.09765625 C-6.64578125 2.78828125 -6.00640625 2.47890625 -5.34765625 2.16015625 C-1.25884046 0.0537966 -1.25884046 0.0537966 0 0 Z " fill="#55ABD0" transform="translate(329.28515625,433.90234375)"/>
<path d="M0 0 C0.33 1.32 0.66 2.64 1 4 C-2 6 -2 6 -4.6875 5.625 C-5.450625 5.41875 -6.21375 5.2125 -7 5 C-7.33 4.01 -7.66 3.02 -8 2 C-8.66 1.67 -9.32 1.34 -10 1 C-6.52674819 -0.1577506 -3.63932552 -0.06866652 0 0 Z " fill="#41B9F0" transform="translate(88,359)"/>
<path d="M0 0 C2.95644137 0.89380785 5.60641668 1.75947686 8.25 3.375 C12.28906271 5.76171888 16.62630822 7.32695674 21 9 C18.29889598 10.35055201 15.99210994 10 13 10 C12.01 10.495 12.01 10.495 11 11 C10.34 10.34 9.68 9.68 9 9 C9.99 9 10.98 9 12 9 C12 8.34 12 7.68 12 7 C9.69 6.34 7.38 5.68 5 5 C5 4.34 5 3.68 5 3 C3.35 3 1.7 3 0 3 C0 2.01 0 1.02 0 0 Z " fill="#61AED1" transform="translate(35,336)"/>
<path d="M0 0 C1.0209375 0.2165625 1.0209375 0.2165625 2.0625 0.4375 C5.05038033 1.04842143 5.05038033 1.04842143 8.3125 1.375 C12.53959609 2.09145696 16.03063894 3.39832799 20 5 C20 5.66 20 6.32 20 7 C22.31 7 24.62 7 27 7 C27.33 7.99 27.66 8.98 28 10 C16.90566038 7.63522013 16.90566038 7.63522013 12 6 C11.67 5.34 11.34 4.68 11 4 C9.906875 3.855625 8.81375 3.71125 7.6875 3.5625 C4.05389072 3.00822062 2.64048966 2.42925049 0 0 Z " fill="#83A5B1" transform="translate(1412,240)"/>
<path d="M0 0 C-5.22771463 3.04157942 -8.92671312 4.50610724 -15 4 C-15.33 4.99 -15.66 5.98 -16 7 C-17.65 7 -19.3 7 -21 7 C-16.16602052 2.16602052 -6.8366351 -2.5411953 0 0 Z " fill="#57B2D8" transform="translate(717,313)"/>
<path d="M0 0 C0.66 0.33 1.32 0.66 2 1 C1.13375 1.37125 1.13375 1.37125 0.25 1.75 C-2.10516858 2.90059472 -2.10516858 2.90059472 -3.8125 5 C-6.63078235 7.57671529 -9.353269 8.03671257 -13 9 C-13.33 9.66 -13.66 10.32 -14 11 C-17.0625 11.625 -17.0625 11.625 -20 12 C-17.34030778 8.90491332 -14.14518725 7.32034245 -10.5625 5.4375 C-8.86287109 4.53837891 -8.86287109 4.53837891 -7.12890625 3.62109375 C-6.09636719 3.08613281 -5.06382812 2.55117188 -4 2 C-2.86884766 1.36771484 -2.86884766 1.36771484 -1.71484375 0.72265625 C-1.14894531 0.48417969 -0.58304688 0.24570312 0 0 Z " fill="#59B1D4" transform="translate(747,294)"/>
<path d="M0 0 C-0.33 0.66 -0.66 1.32 -1 2 C-6.52429247 3.74451341 -11.22850374 4.20612487 -17 4 C-17 3.01 -17 2.02 -17 1 C-15.10440036 0.83069605 -13.20850769 0.66467136 -11.3125 0.5 C-10.25675781 0.4071875 -9.20101563 0.314375 -8.11328125 0.21875 C-5.39363975 0.0276585 -2.72460144 -0.04043935 0 0 Z " fill="#7CA6B8" transform="translate(489,394)"/>
<path d="M0 0 C1.98 0.66 3.96 1.32 6 2 C6 2.66 6 3.32 6 4 C6.70125 4.12375 7.4025 4.2475 8.125 4.375 C11.21404477 5.04653147 14.07132669 5.80190637 17 7 C17.33 7.99 17.66 8.98 18 10 C13.62297367 8.77443263 9.30322683 7.46939453 5 6 C5 5.34 5 4.68 5 4 C4.360625 3.71125 3.72125 3.4225 3.0625 3.125 C1 2 1 2 0 0 Z " fill="#56B2D6" transform="translate(1554,298)"/>
<path d="M0 0 C0.91007812 0.00902344 1.82015625 0.01804687 2.7578125 0.02734375 C3.45648438 0.03894531 4.15515625 0.05054688 4.875 0.0625 C5.535 1.3825 6.195 2.7025 6.875 4.0625 C5.29090006 3.94762252 3.70771037 3.82015492 2.125 3.6875 C1.24328125 3.61789062 0.3615625 3.54828125 -0.546875 3.4765625 C-3.11566382 3.06399945 -4.88341015 2.35089043 -7.125 1.0625 C-4.60024538 -0.19987731 -2.81299534 -0.03606404 0 0 Z " fill="#4FABD5" transform="translate(275.125,425.9375)"/>
<path d="M0 0 C2.64 0 5.28 0 8 0 C3.38747198 4.9306334 -1.63398668 4.7770223 -8 5 C-8 4.34 -8 3.68 -8 3 C-5.36 2.67 -2.72 2.34 0 2 C0 1.34 0 0.68 0 0 Z " fill="#5FB0D5" transform="translate(568,372)"/>
<path d="M0 0 C-0.33 0.99 -0.66 1.98 -1 3 C-4.1875 4.0625 -4.1875 4.0625 -8 5 C-10.00361307 5.65572791 -12.00491933 6.31875294 -14 7 C-9.43166501 2.17786862 -6.76869549 -0.37603864 0 0 Z " fill="#82A4B1" transform="translate(808,265)"/>
<path d="M0 0 C2.64 0 5.28 0 8 0 C8.33 0.66 8.66 1.32 9 2 C11.3140622 2.73075648 13.64828869 3.40138258 16 4 C16 4.66 16 5.32 16 6 C13.36 6 10.72 6 8 6 C7.67 5.01 7.34 4.02 7 3 C3.48809191 1.77030122 3.48809191 1.77030122 0 1 C0 0.67 0 0.34 0 0 Z " fill="#7AA8B8" transform="translate(1440,250)"/>
<path d="M0 0 C6.875 0.875 6.875 0.875 8 2 C10.32817964 2.36760731 12.6618385 2.70241581 15 3 C15 3.99 15 4.98 15 6 C12.87198777 5.57739475 10.74761548 5.13642627 8.625 4.6875 C7.44164062 4.44386719 6.25828125 4.20023438 5.0390625 3.94921875 C2 3 2 3 0 0 Z " fill="#63AED3" transform="translate(1408,240)"/>
<path d="M0 0 C-5.06419265 2.53209633 -8.94548178 3.28129009 -14.625 3.5625 C-15.42679688 3.60568359 -16.22859375 3.64886719 -17.0546875 3.69335938 C-19.0362511 3.79951457 -21.01810271 3.90026855 -23 4 C-16.25933599 0.17117414 -7.62958521 -0.34679933 0 0 Z " fill="#62AED0" transform="translate(1007,204)"/>
<path d="M0 0 C5.60741736 -0.10103455 10.94806761 0.23917964 16.5 1 C17.22703125 1.09539062 17.9540625 1.19078125 18.703125 1.2890625 C20.46935867 1.52146167 22.23477406 1.76006638 24 2 C24 2.33 24 2.66 24 3 C21.31222198 3.0544207 18.62556788 3.09387266 15.9375 3.125 C15.18533203 3.14175781 14.43316406 3.15851563 13.65820312 3.17578125 C8.70672291 3.21865121 4.69585549 2.58399375 0 1 C0 0.67 0 0.34 0 0 Z " fill="#5DB0D3" transform="translate(1216,198)"/>
<path d="M0 0 C-2.12232979 1.17176518 -4.24757791 2.33754785 -6.375 3.5 C-6.97828125 3.83386719 -7.5815625 4.16773438 -8.203125 4.51171875 C-12.7734375 7 -12.7734375 7 -15 7 C-15 6.01 -15 5.02 -15 4 C-13.06767179 3.13419713 -11.12892806 2.28270059 -9.1875 1.4375 C-8.10855469 0.96183594 -7.02960937 0.48617188 -5.91796875 -0.00390625 C-3 -1 -3 -1 0 0 Z " fill="#7DA6B7" transform="translate(743,297)"/>
<path d="M0 0 C-3.06117568 2.62386487 -3.73173127 3 -8 3 C-8 3.66 -8 4.32 -8 5 C-10.64 5.33 -13.28 5.66 -16 6 C-13.41495867 0.82991733 -5.23484343 -0.53690702 0 0 Z " fill="#84A3B0" transform="translate(792,273)"/>
<path d="M0 0 C2.64 0 5.28 0 8 0 C2.990803 4.26709374 -1.5921853 4.12564343 -8 4 C-6 2 -6 2 -2.875 1.875 C-1.92625 1.91625 -0.9775 1.9575 0 2 C0 1.34 0 0.68 0 0 Z " fill="#5EAED5" transform="translate(544,380)"/>
<path d="M0 0 C0.53625 0.226875 1.0725 0.45375 1.625 0.6875 C0.305 1.0175 -1.015 1.3475 -2.375 1.6875 C-2.375 2.3475 -2.375 3.0075 -2.375 3.6875 C-6.27528225 6.28768816 -9.84934569 5.83835514 -14.375 5.6875 C-14.375 5.3575 -14.375 5.0275 -14.375 4.6875 C-13.50875 4.419375 -12.6425 4.15125 -11.75 3.875 C-8.34132504 2.7743709 -8.34132504 2.7743709 -5.25 1 C-2.375 -0.3125 -2.375 -0.3125 0 0 Z " fill="#89A2B1" transform="translate(690.375,320.3125)"/>
<path d="M0 0 C4.72065967 1.54269924 9.41664092 3.07794619 14 5 C10.7169902 6.6415049 7.57454967 5.51888624 4 5 C4 4.34 4 3.68 4 3 C2.68 3 1.36 3 0 3 C0 2.01 0 1.02 0 0 Z " fill="#80A5B2" transform="translate(1488,267)"/>
<path d="M0 0 C2.76501836 1.0572129 5.3711414 2.19330281 8 3.5625 C10.74361426 4.8771485 13.00970184 5.56025027 16 6 C16 6.99 16 7.98 16 9 C9.6795345 7.04366544 4.48388272 5.0012538 0 0 Z " fill="#88A4AB" transform="translate(28,331)"/>
<path d="M0 0 C-3.88309282 3.64775386 -6.71201818 4.58525633 -12 5 C-11.67 4.34 -11.34 3.68 -11 3 C-10.01 3 -9.02 3 -8 3 C-8 2.34 -8 1.68 -8 1 C-4.93251126 -0.86240388 -3.40254489 -1.2151946 0 0 Z " fill="#5EAFD3" transform="translate(696,321)"/>
<path d="M0 0 C1.01841145 0.98124315 2.0207834 1.97963984 3 3 C-7.55808656 2.03644647 -7.55808656 2.03644647 -12 1 C-12 0.67 -12 0.34 -12 0 C-3.02803738 -1.34579439 -3.02803738 -1.34579439 0 0 Z " fill="#58ADD5" transform="translate(1488,291)"/>
<path d="M0 0 C-5.08940744 2.05362055 -9.54520815 3.43179252 -15 4 C-14.0625 2.0625 -14.0625 2.0625 -12 0 C-7.78166691 -1.05261943 -4.13987017 -1.37995672 0 0 Z " fill="#85A6B0" transform="translate(943,217)"/>
<path d="M0 0 C3.77041535 0.73313632 7.51301263 1.54927517 11.25 2.4375 C12.83554688 2.80681641 12.83554688 2.80681641 14.453125 3.18359375 C15.71382812 3.58771484 15.71382812 3.58771484 17 4 C17.33 4.66 17.66 5.32 18 6 C6.18675722 3.76570458 6.18675722 3.76570458 1 2 C0.67 1.34 0.34 0.68 0 0 Z " fill="#89A3AA" transform="translate(124,369)"/>
<path d="M0 0 C-1.46301048 2.92602095 -3.41022764 3.09705209 -6.4375 4.1875 C-7.42621094 4.55230469 -8.41492188 4.91710937 -9.43359375 5.29296875 C-12 6 -12 6 -14 5 C-5.92255125 -0.74031891 -5.92255125 -0.74031891 0 0 Z " fill="#7BA8BB" transform="translate(654,339)"/>
<path d="M0 0 C0.680625 0.12375 1.36125 0.2475 2.0625 0.375 C-0.91982523 3.70143967 -3.80120087 5.66652862 -7.9375 7.375 C-8.5975 7.045 -9.2575 6.715 -9.9375 6.375 C-3.86310175 0.49316193 -3.86310175 0.49316193 0 0 Z " fill="#6DA9CB" transform="translate(725.9375,303.625)"/>
<path d="M0 0 C-3.16566573 2.11044382 -5.51197415 2.75552077 -9.1875 3.625 C-10.27417969 3.88539063 -11.36085938 4.14578125 -12.48046875 4.4140625 C-13.31191406 4.60742188 -14.14335938 4.80078125 -15 5 C-15 3.68 -15 2.36 -15 1 C-14.34 1 -13.68 1 -13 1 C-13 1.66 -13 2.32 -13 3 C-11.96875 2.505 -10.9375 2.01 -9.875 1.5 C-6.47548422 0.02526098 -3.72978451 -0.27291106 0 0 Z " fill="#55AEDC" transform="translate(867,321)"/>
<path d="M0 0 C3.37462715 0.54723683 5.08235 1.0549 8 3 C4.7 3.66 1.4 4.32 -2 5 C-2 4.01 -2 3.02 -2 2 C-1.34 2 -0.68 2 0 2 C0 1.34 0 0.68 0 0 Z " fill="#59ACE2" transform="translate(906,305)"/>
<path d="M0 0 C1.6260287 0.06000106 3.25101549 0.1487885 4.875 0.25 C6.23238281 0.31960938 6.23238281 0.31960938 7.6171875 0.390625 C10 1 10 1 11.3203125 3.046875 C11.54460937 3.69140625 11.76890625 4.3359375 12 5 C7.61110675 4.33501617 4.0188515 2.81242323 0 1 C0 0.67 0 0.34 0 0 Z " fill="#89A2B4" transform="translate(1505,275)"/>
<path d="M0 0 C0 0.99 0 1.98 0 3 C-3.375 3.125 -3.375 3.125 -7 3 C-7.66 2.34 -8.32 1.68 -9 1 C-5.64919071 -1.10976881 -3.77897651 -1.0497157 0 0 Z " fill="#54AEE0" transform="translate(1391,273)"/>
<path d="M0 0 C-1.74816858 0.50636607 -3.49862263 1.00484619 -5.25 1.5 C-6.22453125 1.7784375 -7.1990625 2.056875 -8.203125 2.34375 C-11 3 -11 3 -15 3 C-15 2.01 -15 1.02 -15 0 C-13.25093341 -0.19601608 -11.50068154 -0.38147403 -9.75 -0.5625 C-8.77546875 -0.66691406 -7.8009375 -0.77132813 -6.796875 -0.87890625 C-4.2368648 -0.98974468 -2.41851841 -0.77738092 0 0 Z " fill="#7AA7BD" transform="translate(519,389)"/>
<path d="M0 0 C1.98 0 3.96 0 6 0 C6 0.99 6 1.98 6 3 C7.65 3 9.3 3 11 3 C10.34 3.66 9.68 4.32 9 5 C5.62008426 4.6442194 2.95711562 3.64284201 0 2 C0 1.34 0 0.68 0 0 Z " fill="#50B3DD" transform="translate(29,336)"/>
<path d="M0 0 C4.95 0.33 9.9 0.66 15 1 C15 1.99 15 2.98 15 4 C10.05 3.01 5.1 2.02 0 1 C0 0.67 0 0.34 0 0 Z " fill="#49A3CB" transform="translate(1515,299)"/>
<path d="M0 0 C1.32 0.33 2.64 0.66 4 1 C1 3 1 3 -2 3 C-2 3.66 -2 4.32 -2 5 C-4.31 5.33 -6.62 5.66 -9 6 C-8.67 5.01 -8.34 4.02 -8 3 C-5.36 2.67 -2.72 2.34 0 2 C0 1.34 0 0.68 0 0 Z " fill="#62B0CC" transform="translate(784,276)"/>
<path d="M0 0 C3.375 -0.1875 3.375 -0.1875 7 0 C7.66 0.99 8.32 1.98 9 3 C6.1875 3.625 6.1875 3.625 3 4 C2.01 3.34 1.02 2.68 0 2 C0 1.34 0 0.68 0 0 Z " fill="#5DACC2" transform="translate(24,333)"/>
<path d="M0 0 C1.43793392 0.31049726 2.8753318 0.6234776 4.3125 0.9375 C5.11300781 1.11152344 5.91351562 1.28554688 6.73828125 1.46484375 C9 2 9 2 12 3 C12 3.66 12 4.32 12 5 C6.06 3.515 6.06 3.515 0 2 C0 1.34 0 0.68 0 0 Z " fill="#6CACC9" transform="translate(1476,264)"/>
<path d="M0 0 C1.32 0 2.64 0 4 0 C3.67 0.99 3.34 1.98 3 3 C-0.75907641 4.62323754 -3.92086213 5.23994929 -8 5 C-4.93882432 2.37613513 -4.26826873 2 0 2 C0 1.34 0 0.68 0 0 Z " fill="#50B4E1" transform="translate(912,226)"/>
<path d="M0 0 C8.57142857 0.71428571 8.57142857 0.71428571 12 4 C9.36 4 6.72 4 4 4 C4 3.34 4 2.68 4 2 C2.68 1.67 1.36 1.34 0 1 C0 0.67 0 0.34 0 0 Z " fill="#86A3AD" transform="translate(148,376)"/>
<path d="M0 0 C0.99 0.99 1.98 1.98 3 3 C0.08235 4.9451 -1.62537285 5.45276317 -5 6 C-4.34 4.35 -3.68 2.7 -3 1 C-2.01 1.33 -1.02 1.66 0 2 C0 1.34 0 0.68 0 0 Z " fill="#51ABE2" transform="translate(788,344)"/>
<path d="M0 0 C4.85963179 0.60745397 8.7405518 2.72758967 13 5 C11 6 11 6 8.65234375 5.29296875 C7.30849609 4.74576172 7.30849609 4.74576172 5.9375 4.1875 C5.03902344 3.83042969 4.14054687 3.47335937 3.21484375 3.10546875 C1 2 1 2 0 0 Z " fill="#64AED6" transform="translate(56,346)"/>
<path d="M0 0 C-4.02167317 2.96837781 -7.00088076 4.52389341 -12 5 C-8.98541648 1.5216344 -4.71726343 -2.35863172 0 0 Z " fill="#8BA1B4" transform="translate(668,332)"/>
<path d="M0 0 C4.455 0.99 4.455 0.99 9 2 C9 2.99 9 3.98 9 5 C6.36 4.67 3.72 4.34 1 4 C0.67 2.68 0.34 1.36 0 0 Z " fill="#72A7CA" transform="translate(1588,314)"/>
<path d="M0 0 C5.34844008 0.53484401 9.35796103 2.46690767 14 5 C11.26980214 6.06528748 10.20701188 6.07998186 7.421875 5.00390625 C6.54015625 4.52824219 5.6584375 4.05257813 4.75 3.5625 C3.85796875 3.08941406 2.9659375 2.61632812 2.046875 2.12890625 C1.37140625 1.75636719 0.6959375 1.38382812 0 1 C0 0.67 0 0.34 0 0 Z " fill="#6EABC7" transform="translate(1496,272)"/>
<path d="M0 0 C1.423125 0.495 1.423125 0.495 2.875 1 C5.77062452 2.10159191 5.77062452 2.10159191 8 2 C8 2.66 8 3.32 8 4 C5.36 4.33 2.72 4.66 0 5 C0 3.35 0 1.7 0 0 Z " fill="#55B0D7" transform="translate(1052,274)"/>
<path d="M0 0 C1.8871875 0.0309375 1.8871875 0.0309375 3.8125 0.0625 C-0.01267513 2.45323445 -3.78415524 2.62216552 -8.1875 3.0625 C-6.45706736 -0.39836529 -3.47359009 -0.0569441 0 0 Z " fill="#85A4B5" transform="translate(532.1875,382.9375)"/>
<path d="M0 0 C-7.28571429 3.42857143 -7.28571429 3.42857143 -12 3 C-12 2.34 -12 1.68 -12 1 C-10.37681021 0.63762737 -8.7513642 0.28534843 -7.125 -0.0625 C-6.22007812 -0.25972656 -5.31515625 -0.45695312 -4.3828125 -0.66015625 C-2 -1 -2 -1 0 0 Z " fill="#55B1DA" transform="translate(636,350)"/>
<path d="M0 0 C1.32 0.33 2.64 0.66 4 1 C4 2.65 4 4.3 4 6 C3.01 6 2.02 6 1 6 C0.67 4.02 0.34 2.04 0 0 Z " fill="#4AB4F2" transform="translate(64,351)"/>
<path d="M0 0 C1.46224799 0.42423244 2.91973412 0.86490245 4.375 1.3125 C5.18710938 1.55613281 5.99921875 1.79976563 6.8359375 2.05078125 C9 3 9 3 11 6 C6.95743617 4.77782954 3.50711041 3.37245704 0 1 C0 0.67 0 0.34 0 0 Z " fill="#65AFD2" transform="translate(1571,306)"/>
<path d="M0 0 C2.64 0.33 5.28 0.66 8 1 C8.33 1.99 8.66 2.98 9 4 C4.545 3.01 4.545 3.01 0 2 C0 1.34 0 0.68 0 0 Z " fill="#77A7C7" transform="translate(1456,256)"/>
<path d="M0 0 C0.33 0.66 0.66 1.32 1 2 C4.465 1.505 4.465 1.505 8 1 C4.55549263 3.29633824 2.06187717 3.54016485 -2 4 C-2 3.01 -2 2.02 -2 1 C-1.34 0.67 -0.68 0.34 0 0 Z " fill="#58AADB" transform="translate(574,418)"/>
<path d="M0 0 C0.928125 0.20625 1.85625 0.4125 2.8125 0.625 C-0.10515 2.5701 -1.81287285 3.07776317 -5.1875 3.625 C-5.5175 2.965 -5.8475 2.305 -6.1875 1.625 C-3.1875 -0.375 -3.1875 -0.375 0 0 Z " fill="#4FB0DD" transform="translate(680.1875,386.375)"/>
<path d="M0 0 C8.57142857 0.85714286 8.57142857 0.85714286 12 3 C4.61538462 3.36923077 4.61538462 3.36923077 1.5 1.5 C1.005 1.005 0.51 0.51 0 0 Z " fill="#58B1DB" transform="translate(140,377)"/>
<path d="M0 0 C-0.33 0.99 -0.66 1.98 -1 3 C-6.75 1.25 -6.75 1.25 -9 -1 C-5.79937313 -2.60031344 -3.27728194 -1.03173691 0 0 Z " fill="#33ACE2" transform="translate(60,350)"/>
<path d="M0 0 C2.8125 -0.25 2.8125 -0.25 6 0 C7.875 2 7.875 2 9 4 C7.68528432 3.71848913 6.37324233 3.42446661 5.0625 3.125 C3.96615234 2.88136719 3.96615234 2.88136719 2.84765625 2.6328125 C1 2 1 2 0 0 Z " fill="#76A8C0" transform="translate(7,324)"/>
<path d="M0 0 C-5.53846154 3.53846154 -5.53846154 3.53846154 -9 4 C-9.99 3.67 -10.98 3.34 -12 3 C-10.75823305 2.29773859 -9.50614401 1.61370891 -8.25 0.9375 C-7.20585938 0.36322266 -7.20585938 0.36322266 -6.140625 -0.22265625 C-3.63859372 -1.1312406 -2.4667645 -0.88336837 0 0 Z " fill="#51B3E0" transform="translate(856,249)"/>
<path d="M0 0 C-1 2 -1 2 -2.625 2.625 C-5.7660575 3.12095645 -8.82601831 3.06103811 -12 3 C-12 2.67 -12 2.34 -12 2 C-7.82262526 0.40861915 -4.46839215 -0.21278058 0 0 Z " fill="#69ABD6" transform="translate(949,216)"/>
<path d="M0 0 C2.31 0 4.62 0 7 0 C7 0.66 7 1.32 7 2 C8.32 2.33 9.64 2.66 11 3 C9.35333797 2.8864371 7.70763918 2.75882619 6.0625 2.625 C5.14597656 2.55539063 4.22945312 2.48578125 3.28515625 2.4140625 C2.15400391 2.20910156 2.15400391 2.20910156 1 2 C0.67 1.34 0.34 0.68 0 0 Z " fill="#5BAFDA" transform="translate(1260,204)"/>
<path d="M0 0 C0.33 0.99 0.66 1.98 1 3 C-1.31 2.67 -3.62 2.34 -6 2 C-6 1.34 -6 0.68 -6 0 C-3 -1 -3 -1 0 0 Z " fill="#8EA2AF" transform="translate(1579,305)"/>
<path d="M0 0 C2.64 0 5.28 0 8 0 C4.93882432 2.62386487 4.26826873 3 0 3 C0 2.01 0 1.02 0 0 Z " fill="#79A9B4" transform="translate(888,231)"/>
<path d="M0 0 C2.31 0.33 4.62 0.66 7 1 C7 1.33 7 1.66 7 2 C2.59085217 3.10228696 -1.48382401 3.07654536 -6 3 C-6 2.67 -6 2.34 -6 2 C-4.02 2 -2.04 2 0 2 C0 1.34 0 0.68 0 0 Z " fill="#64AACE" transform="translate(488,435)"/>
<path d="M0 0 C2.64 0 5.28 0 8 0 C8 0.66 8 1.32 8 2 C8.99 2.33 9.98 2.66 11 3 C6.94393835 2.53199289 3.53411321 2.12046792 0 0 Z " fill="#92A3A8" transform="translate(80,354)"/>
<path d="M0 0 C2.02045442 0.60183749 4.02111039 1.27306096 6 2 C6.33 2.66 6.66 3.32 7 4 C5.02 4 3.04 4 1 4 C0.67 2.68 0.34 1.36 0 0 Z " fill="#59B0E2" transform="translate(1532,288)"/>
<path d="M0 0 C2.64 0 5.28 0 8 0 C8 0.66 8 1.32 8 2 C8.66 2.33 9.32 2.66 10 3 C3.375 2.25 3.375 2.25 0 0 Z " fill="#8BA1B4" transform="translate(1325,215)"/>
<path d="" fill="#000000" transform="translate(0,0)"/>
<path d="" fill="#000000" transform="translate(0,0)"/>
<path d="" fill="#000000" transform="translate(0,0)"/>
<path d="" fill="#000000" transform="translate(0,0)"/>
<path d="" fill="#000000" transform="translate(0,0)"/>
<path d="" fill="#000000" transform="translate(0,0)"/>
<path d="" fill="#000000" transform="translate(0,0)"/>
<path d="" fill="#000000" transform="translate(0,0)"/>
<path d="" fill="#000000" transform="translate(0,0)"/>
<path d="" fill="#000000" transform="translate(0,0)"/>
<path d="" fill="#000000" transform="translate(0,0)"/>
<path d="" fill="#000000" transform="translate(0,0)"/>
<path d="" fill="#000000" transform="translate(0,0)"/>
<path d="" fill="#000000" transform="translate(0,0)"/>
<path d="" fill="#000000" transform="translate(0,0)"/>
<path d="" fill="#000000" transform="translate(0,0)"/>
<path d="" fill="#000000" transform="translate(0,0)"/>
<path d="" fill="#000000" transform="translate(0,0)"/>
</svg>
