<?xml version="1.0" encoding="UTF-8"?>
<svg version="1.1" xmlns="http://www.w3.org/2000/svg" width="328" height="340">
<path d="M0 0 C39.98472105 -0.02286478 79.96944126 -0.04049742 119.95416754 -0.05106533 C124.66955897 -0.05231611 129.38495039 -0.05361042 134.1003418 -0.05493164 C135.50852789 -0.05532511 135.50852789 -0.05532511 136.94516218 -0.05572652 C152.16669189 -0.06008356 167.38821784 -0.06797129 182.60974532 -0.0771528 C198.21635117 -0.08648841 213.82295505 -0.09205541 229.42956358 -0.09408849 C239.06773101 -0.09546392 248.70588781 -0.09981553 258.34405196 -0.10791647 C264.94397352 -0.11318279 271.54388956 -0.11480456 278.14381307 -0.11350138 C281.95752106 -0.11285782 285.77121044 -0.11387752 289.58491516 -0.11920547 C293.70965289 -0.12492623 297.83435043 -0.12300123 301.95909119 -0.12025452 C303.17793611 -0.12316736 304.39678103 -0.1260802 305.65256065 -0.12908131 C307.29622654 -0.12609474 307.29622654 -0.12609474 308.9730978 -0.12304783 C309.92657555 -0.12342755 310.8800533 -0.12380727 311.86242431 -0.1241985 C314 0 314 0 315 1 C315.0992278 3.22303757 315.1263242 5.44929435 315.12698364 7.67454529 C315.12854363 8.38044314 315.13010362 9.08634099 315.13171089 9.81362969 C315.13572328 12.19665606 315.13253032 14.57961956 315.12939453 16.96264648 C315.13074848 18.66396116 315.13252837 20.36527554 315.13470459 22.06658936 C315.13928005 26.70082142 315.13748881 31.33503132 315.1343255 35.96926379 C315.13180207 40.80902337 315.13413943 45.648781 315.13571167 50.48854065 C315.13753359 58.61874738 315.13512666 66.74894504 315.13037109 74.87915039 C315.12493026 84.28981168 315.12668974 93.7004513 315.1321975 103.11111206 C315.13673017 111.17734063 315.13737836 119.24356267 315.13475883 127.3097921 C315.13319667 132.13326851 315.13300059 136.95673473 315.13629532 141.78021049 C315.1391762 146.31502678 315.13719431 150.84981505 315.13140106 155.3846283 C315.13007456 157.0527854 315.13046574 158.72094485 315.13266373 160.38910103 C315.13537955 162.65892329 315.13198874 164.92865466 315.12698364 167.19847107 C315.12660662 168.47109015 315.12622959 169.74370924 315.12584114 171.05489254 C315 174 315 174 314 176 C281.66 176 249.32 176 216 176 C213.8671037 171.73420741 213.75612674 169.79676502 213.77294922 165.12011719 C213.77265717 164.43678314 213.77236511 163.7534491 213.77206421 163.04940796 C213.77345376 160.79843294 213.78899698 158.54779196 213.8046875 156.296875 C213.80841897 154.73317648 213.81126531 153.16947562 213.81326294 151.60577393 C213.82088886 147.49578362 213.84052836 143.3859353 213.8626709 139.27600098 C213.88315178 135.07985352 213.89226945 130.88368306 213.90234375 126.6875 C213.92377528 118.45826827 213.95789861 110.22915181 214 102 C212.90317681 102.00092179 211.80635363 102.00184359 210.67629337 102.00279331 C184.02971693 102.02495962 157.38314167 102.04140993 130.73655796 102.05181217 C117.85065445 102.05697589 104.96475703 102.06402001 92.07885742 102.07543945 C80.85194089 102.08538399 69.62502876 102.09185288 58.39810795 102.09408849 C52.44955363 102.09539599 46.50101191 102.09848431 40.55246162 102.10573006 C34.96050808 102.11248665 29.36857238 102.1146177 23.77661514 102.11310768 C21.71779852 102.11338417 19.65898134 102.11539142 17.60016823 102.11920547 C14.80227584 102.12413709 12.004452 102.12300027 9.20655823 102.12025452 C7.96776951 102.12462378 7.96776951 102.12462378 6.70395476 102.12908131 C1.11412121 102.11412121 1.11412121 102.11412121 0 101 C-0.09534958 97.86440114 -0.12550879 94.75086387 -0.11352539 91.61499023 C-0.11367142 90.62973358 -0.11381744 89.64447693 -0.1139679 88.62936401 C-0.11326832 85.35575193 -0.10547385 82.08219596 -0.09765625 78.80859375 C-0.09579223 76.54557832 -0.09436825 74.28256249 -0.09336853 72.01954651 C-0.0895421 66.05021052 -0.07971075 60.08089868 -0.06866455 54.11157227 C-0.05845312 48.02555671 -0.05387149 41.93953727 -0.04882812 35.85351562 C-0.03808859 23.90233311 -0.02101068 11.95116856 0 0 Z " fill="#A1A1A1" transform="translate(7,7)"/>
<path d="M0 0 C33.66 0 67.32 0 102 0 C102.33 9.24 102.66 18.48 103 28 C104.90229318 54.79062892 111.75954435 84.79468374 131 105 C131.99 105.33 132.98 105.66 134 106 C134.69390806 107.31936115 135.35767629 108.65477047 136 110 C141.70860043 116.20824099 149.12083505 120.45434259 156.25 124.8125 C157.32507813 125.47958984 158.40015625 126.14667969 159.5078125 126.83398438 C164.75145069 130.12715198 164.75145069 130.12715198 170.18652344 133.08081055 C172 134 172 134 174.375 135.9375 C176.92883265 138.09218772 176.92883265 138.09218772 179.9375 139.4375 C182.4509892 140.71989245 184.09746447 141.81949901 186.1875 143.625 C188.82064001 146.14602711 188.82064001 146.14602711 192 147 C192 147.66 192 148.32 192 149 C192.71881348 149.26393555 193.43762695 149.52787109 194.17822266 149.79980469 C197.07140649 151.03037154 199.51706518 152.48669369 202.1484375 154.203125 C203.11104492 154.82638672 204.07365234 155.44964844 205.06542969 156.09179688 C206.51804199 157.03635742 206.51804199 157.03635742 208 158 C209.76155344 159.12209862 211.52453868 160.24195318 213.2890625 161.359375 C221.81429973 166.77519441 230.33528871 172.19671544 238.8125 177.6875 C239.4837793 178.1220752 240.15505859 178.55665039 240.84667969 179.00439453 C244.47766964 181.35761933 248.10228229 183.72031896 251.72265625 186.08984375 C252.50084717 186.59749268 253.27903809 187.1051416 254.08081055 187.62817383 C255.57500749 188.60305107 257.06745275 189.58062012 258.55786133 190.5612793 C259.22712646 190.99738525 259.8963916 191.43349121 260.5859375 191.8828125 C261.1742334 192.26840332 261.7625293 192.65399414 262.36865234 193.05126953 C264.15721553 194.16549889 264.15721553 194.16549889 267 195 C267.66 195.66 268.32 196.32 269 197 C269.66 197.33 270.32 197.66 271 198 C273.625 199.75 273.625 199.75 276 202 C276.3125 204.75 276.3125 204.75 276 207 C273.13539312 207.95486896 271.36981973 208.12442024 268.39854908 208.12304783 C267.44857573 208.12503888 266.49860239 208.12702993 265.51984197 208.12908131 C264.47413351 208.12616847 263.42842504 208.12325563 262.35102844 208.12025452 C260.6872195 208.12153615 260.6872195 208.12153615 258.98979825 208.12284368 C255.25400623 208.12449751 251.51825862 208.11897865 247.7824707 208.11352539 C245.11211038 208.11324347 242.44175281 208.11335726 239.77139282 208.1139679 C234.01249541 208.11449273 228.25360931 208.11135017 222.49471474 208.10573006 C214.16827873 208.09760956 205.8418482 208.09499927 197.51540866 208.09374207 C184.00693275 208.09155241 170.49846287 208.08489467 156.98999023 208.07543945 C143.86629263 208.0662631 130.74259665 208.05918335 117.61889648 208.05493164 C116.81020885 208.05466892 116.00152122 208.05440619 115.16832791 208.05413551 C111.11145651 208.05283049 107.0545851 208.05156678 102.99771369 208.05032361 C69.33180475 208.03995369 35.66590311 208.02233773 2 208 C0.23810321 202.68647073 -0.28316222 198.10425904 -0.24050903 192.52748108 C-0.24221788 191.70070608 -0.24392673 190.87393108 -0.24568737 190.0221023 C-0.24896807 187.2660287 -0.23800206 184.51020136 -0.22705078 181.75415039 C-0.22648636 179.77284755 -0.22680383 177.79154429 -0.22793579 175.8102417 C-0.2285091 170.44095598 -0.21675828 165.07175979 -0.20278788 159.70249486 C-0.1902769 154.08775491 -0.18910973 148.47301285 -0.18673706 142.85826111 C-0.18052338 132.23014267 -0.16411404 121.60206542 -0.14403808 110.97396511 C-0.11749339 96.60923606 -0.10670554 82.24449574 -0.09503365 67.87974834 C-0.0762334 45.25313471 -0.03638693 22.62660801 0 0 Z " fill="#025AA5" transform="translate(6,129)"/>
<path d="M0 0 C9.48347252 -0.02313912 18.96693536 -0.04092312 28.45042992 -0.05181217 C32.85368215 -0.05703755 37.25691511 -0.06412897 41.66015625 -0.07543945 C45.90709244 -0.08628054 50.15401006 -0.09227944 54.40095901 -0.09487724 C56.02372149 -0.09672928 57.64648292 -0.10034568 59.26923752 -0.10573006 C61.53677339 -0.11295668 63.80423187 -0.11399025 66.07177734 -0.11352539 C67.36417328 -0.115746 68.65656921 -0.11796661 69.98812866 -0.12025452 C73 0 73 0 75 1 C75 26.08 75 51.16 75 77 C113.61 77 152.22 77 192 77 C193.25290594 79.50581188 193.12862953 81.20558366 193.13371277 84.01049805 C193.13797775 85.07054047 193.14224274 86.13058289 193.14663696 87.2227478 C193.14618378 88.39060822 193.14573059 89.55846863 193.14526367 90.76171875 C193.14862228 91.98774811 193.1519809 93.21377747 193.15544128 94.47695923 C193.16332871 97.84465516 193.16661971 101.21228945 193.16725707 104.57999039 C193.16820541 107.38832589 193.17188275 110.19665545 193.17542917 113.00498867 C193.18357644 119.62800331 193.18601311 126.25100436 193.18530273 132.87402344 C193.1847015 139.71436262 193.19526172 146.55462304 193.2110464 153.39494228 C193.22410373 159.26163576 193.22948741 165.12830343 193.22884732 170.99501133 C193.22859185 174.50169707 193.23147019 178.00831282 193.24202538 181.51498413 C193.25346665 185.42278144 193.24897066 189.33046988 193.24291992 193.23828125 C193.24853943 194.40614166 193.25415894 195.57400208 193.25994873 196.7772522 C193.25575424 197.83729462 193.25155975 198.89733704 193.24723816 199.98950195 C193.24778293 200.91422806 193.24832769 201.83895416 193.24888897 202.79170227 C193 205 193 205 191 207 C190.33355469 206.50371094 189.66710937 206.00742187 188.98046875 205.49609375 C183.3823094 201.36989798 177.7121569 197.47414393 171.8203125 193.78125 C165.15848257 189.57377846 158.62601882 185.16607454 152.1875 180.625 C144.47918596 175.19329877 136.58244965 170.03676044 128.72265625 164.828125 C124.17538237 161.80831378 119.64779449 158.77214858 115.1875 155.625 C108.54909182 150.94842171 101.76669562 146.48773937 95 142 C92.3948824 140.27226028 89.79050143 138.54342653 87.1875 136.8125 C86.5569873 136.39323242 85.92647461 135.97396484 85.27685547 135.54199219 C81.7959603 133.22017372 78.35088897 130.8581059 74.9375 128.4375 C71.06788562 125.70374258 67.11656798 123.11347775 63.125 120.5625 C27.62489265 97.87467795 27.62489265 97.87467795 25 90 C23.7625 89.0409375 23.7625 89.0409375 22.5 88.0625 C19.84513598 85.87223718 19.53839911 85.23039468 19 82 C18.34 81.34 17.68 80.68 17 80 C13.84520223 76.4508525 12.43317681 73.49062066 11 69 C10.484375 68.360625 9.96875 67.72125 9.4375 67.0625 C7.44490371 64.20355749 7.45015488 61.40831553 7 58 C6.34 57.67 5.68 57.34 5 57 C4.61067967 55.01014051 4.28112064 53.00800456 4 51 C3.505 49.515 3.505 49.515 3 48 C2.65657551 46.66923011 2.32380126 45.33568021 2 44 C1.8362085 43.39647705 1.67241699 42.7929541 1.50366211 42.17114258 C-0.63217838 32.96414817 -0.12337898 23.19254578 -0.0625 13.8125 C-0.05746963 12.46549648 -0.05290947 11.11849111 -0.04882812 9.77148438 C-0.03715354 6.51427463 -0.02077883 3.25716222 0 0 Z " fill="#42B6EB" transform="translate(129,129)"/>
<path d="M0 0 C0.33 0 0.66 0 1 0 C1 25.08 1 50.16 1 76 C39.61 76 78.22 76 118 76 C119.25290594 78.50581188 119.12862953 80.20558366 119.13371277 83.01049805 C119.13797775 84.07054047 119.14224274 85.13058289 119.14663696 86.2227478 C119.14595718 87.97453842 119.14595718 87.97453842 119.14526367 89.76171875 C119.14862228 90.98774811 119.1519809 92.21377747 119.15544128 93.47695923 C119.16332871 96.84465516 119.16661971 100.21228945 119.16725707 103.57999039 C119.16820541 106.38832589 119.17188275 109.19665545 119.17542917 112.00498867 C119.18357644 118.62800331 119.18601311 125.25100436 119.18530273 131.87402344 C119.1847015 138.71436262 119.19526172 145.55462304 119.2110464 152.39494228 C119.22410373 158.26163576 119.22948741 164.12830343 119.22884732 169.99501133 C119.22859185 173.50169707 119.23147019 177.00831282 119.24202538 180.51498413 C119.25346665 184.42278144 119.24897066 188.33046988 119.24291992 192.23828125 C119.24853943 193.40614166 119.25415894 194.57400208 119.25994873 195.7772522 C119.25575424 196.83729462 119.25155975 197.89733704 119.24723816 198.98950195 C119.24778293 199.91422806 119.24832769 200.83895416 119.24888897 201.79170227 C119 204 119 204 117 206 C116.32195312 205.49210938 115.64390625 204.98421875 114.9453125 204.4609375 C108.82027048 199.93078177 102.61093902 195.78587397 96 192 C96.99 191.34 97.98 190.68 99 190 C99.54527344 190.37511719 100.09054687 190.75023437 100.65234375 191.13671875 C101.40644531 191.64847656 102.16054688 192.16023437 102.9375 192.6875 C103.66839844 193.18636719 104.39929688 193.68523437 105.15234375 194.19921875 C109.00098277 196.63299459 113.01943607 198.78857559 117 201 C117 160.74 117 120.48 117 79 C78.06 79 39.12 79 -1 79 C-0.67 52.93 -0.34 26.86 0 0 Z " fill="#5BADC4" transform="translate(203,130)"/>
<path d="M0 0 C0.33 0 0.66 0 1 0 C1.02333289 22.52185503 1.0409811 45.04370808 1.05181217 67.56557274 C1.0569743 78.02223489 1.06401541 88.47888954 1.07543945 98.93554688 C1.08538883 108.04673855 1.09185404 117.15792481 1.09408849 126.26912177 C1.09539517 131.09596976 1.0984783 135.92280221 1.10573006 140.74964523 C1.11249426 145.28854761 1.11461614 149.82742798 1.11310768 154.36633492 C1.11338383 156.03610542 1.11538659 157.70587662 1.11920547 159.37564278 C1.12414895 161.64770327 1.12299584 163.91967967 1.12025452 166.19174194 C1.12117631 167.46565985 1.1220981 168.73957775 1.12304783 170.05209923 C1 173 1 173 0 175 C-32.34 175 -64.68 175 -98 175 C-98 149.92 -98 124.84 -98 99 C-97.67 99 -97.34 99 -97 99 C-97 123.09 -97 147.18 -97 172 C-64.99 172 -32.98 172 0 172 C0 115.24 0 58.48 0 0 Z " fill="#C0C0C0" transform="translate(321,8)"/>
<path d="M0 0 C0.33 0 0.66 0 1 0 C1.33 67.65 1.66 135.3 2 205 C49.60841506 204.8513691 49.60841506 204.8513691 97.21679688 204.69335938 C103.62687149 204.67139189 110.03694631 204.64948669 116.44702148 204.62768555 C117.25047231 204.62495036 118.05392314 204.62221517 118.88172096 204.6193971 C131.87003812 204.57527188 144.85836404 204.53466543 157.84669655 204.49534739 C171.16617099 204.45494902 184.48562912 204.41079548 197.80507952 204.36312145 C206.03060027 204.33379942 214.25611973 204.30744212 222.48166168 204.28482103 C228.11445606 204.26905028 233.74723045 204.2496476 239.38000267 204.22733159 C242.63473008 204.214546 245.8894393 204.20395299 249.14418411 204.19658089 C252.6646338 204.18835646 256.18500684 204.1740904 259.70542908 204.15821838 C260.74529038 204.15724028 261.78515168 204.15626217 262.85652393 204.15525442 C264.25983553 204.14704276 264.25983553 204.14704276 265.69149685 204.1386652 C266.50523752 204.13600716 267.31897818 204.13334911 268.15737766 204.13061053 C270.01741237 204.20103452 270.01741237 204.20103452 271 203 C271 202.01 271 201.02 271 200 C272.65 200.66 274.3 201.32 276 202 C276 203.32 276 204.64 276 206 C185.25 206 94.5 206 1 206 C0.0917573 201.45878648 -0.13766237 197.35485621 -0.12025452 192.76799011 C-0.12110894 191.94292396 -0.12196337 191.11785782 -0.12284368 190.26778966 C-0.12448965 187.50557135 -0.11899155 184.74341388 -0.11352539 181.98120117 C-0.1132433 180.00019329 -0.11340168 178.01918531 -0.1139679 176.03817749 C-0.11425503 170.66053676 -0.10837187 165.28291829 -0.10139394 159.90528274 C-0.09514641 154.28518903 -0.09455549 148.66509482 -0.09336853 143.04499817 C-0.09025935 132.40266158 -0.08205151 121.76033526 -0.07201904 111.11800319 C-0.06084509 99.00203691 -0.05534422 86.88607015 -0.05032361 74.7701 C-0.03986857 49.84672764 -0.0222771 24.9233644 0 0 Z " fill="#81B9DF" transform="translate(6,129)"/>
<path d="M0 0 C-0.33 24.09 -0.66 48.18 -1 73 C-1.33 73 -1.66 73 -2 73 C-2 49.9 -2 26.8 -2 3 C-72.29 3 -142.58 3 -215 3 C-215 2.67 -215 2.34 -215 2 C-214.3525564 1.99576806 -213.7051128 1.99153612 -213.0380497 1.98717594 C-196.96151171 1.88187668 -180.88500172 1.77302801 -164.80851173 1.66066074 C-157.03267008 1.60638889 -149.25682439 1.55315138 -141.48095703 1.50268555 C-132.45863414 1.44398162 -123.43633677 1.38217286 -114.4140625 1.31640625 C-113.66979539 1.31099335 -112.92552828 1.30558045 -112.15870762 1.30000353 C-88.04396099 1.12291026 -63.93492477 0.80428144 -39.8241272 0.32704163 C-38.70636524 0.30546305 -37.58860329 0.28388447 -36.43696976 0.26165199 C-34.42257515 0.22240219 -32.40821157 0.18148462 -30.39390182 0.13809776 C-20.25836917 -0.06023779 -10.14511919 0 0 0 Z " fill="#727272" transform="translate(223,106)"/>
<path d="M0 0 C103.29 0 206.58 0 313 0 C313 0.33 313 0.66 313 1 C209.71 1 106.42 1 0 1 C0 0.67 0 0.34 0 0 Z " fill="#000000" transform="translate(8,5)"/>
<path d="M0 0 C24.09 0 48.18 0 73 0 C73 25.41 73 50.82 73 77 C72.67 77 72.34 77 72 77 C72 52.25 72 27.5 72 2 C48.9 2 25.8 2 2 2 C2.33 11.24 2.66 20.48 3 30 C2.505 32.475 2.505 32.475 2 35 C1.67 35 1.34 35 1 35 C-0.91877088 23.48737473 0 11.6714276 0 0 Z " fill="#96D8F1" transform="translate(129,129)"/>
<path d="M0 0 C-0.33 24.09 -0.66 48.18 -1 73 C-1.33 73 -1.66 73 -2 73 C-2 49.57 -2 26.14 -2 2 C-27.41 2 -52.82 2 -79 2 C-79 1.67 -79 1.34 -79 1 C-71.80046418 0.86735747 -64.60089259 0.73685586 -57.40127277 0.60884857 C-54.05566293 0.54930234 -50.71007402 0.48889846 -47.36450195 0.42724609 C-43.48912514 0.35595138 -39.61371018 0.2871464 -35.73828125 0.21875 C-34.57798904 0.19687622 -33.41769684 0.17500244 -32.22224426 0.15246582 C-21.47685823 -0.03305287 -10.75305664 0 0 0 Z " fill="#636363" transform="translate(223,106)"/>
<path d="M0 0 C2 2 2 2 2.125 5.125 C2.08375 6.07375 2.0425 7.0225 2 8 C2.66 8 3.32 8 4 8 C4.03738281 8.72445312 4.07476562 9.44890625 4.11328125 10.1953125 C4.50261029 15.92073958 5.22302736 19.90888349 8 25 C8.6875 28.875 8.6875 28.875 9 32 C9.66 32 10.32 32 11 32 C14 37.625 14 37.625 14 41 C12.515 41.495 12.515 41.495 11 42 C10.5978125 40.63875 10.5978125 40.63875 10.1875 39.25 C9.21964981 36.05926023 9.21964981 36.05926023 7.4375 34.0625 C5.44490371 31.20355749 5.45015488 28.40831553 5 25 C4.34 24.67 3.68 24.34 3 24 C2.61067967 22.01014051 2.28112064 20.00800456 2 18 C1.67 17.01 1.34 16.02 1 15 C0.65657551 13.66923011 0.32380126 12.33568021 0 11 C-0.20625 10.401875 -0.4125 9.80375 -0.625 9.1875 C-1.16968457 6.01017333 -0.54551565 3.15186822 0 0 Z " fill="#6CBBD5" transform="translate(131,162)"/>
<path d="M0 0 C0.33 0 0.66 0 1 0 C1 32.34 1 64.68 1 98 C0.67 98 0.34 98 0 98 C0 65.66 0 33.32 0 0 Z " fill="#7E7E7E" transform="translate(5,8)"/>
<path d="M0 0 C5.28604133 1.86566165 9.48629783 4.94967605 14.0625 8.125 C17.77226457 10.49293483 20.57135622 12 25 12 C26.03789581 13.64333504 27.03567924 15.31243867 28 17 C28.99 17.66 29.98 18.32 31 19 C30.67 19.99 30.34 20.98 30 22 C22.25191472 17.11931636 14.58600226 12.12917199 7 7 C6.236875 6.48953125 5.47375 5.9790625 4.6875 5.453125 C3.08677954 4.35585694 1.53564409 3.18663407 0 2 C0 1.34 0 0.68 0 0 Z " fill="#60C4EA" transform="translate(202,254)"/>
<path d="M0 0 C23.43 0 46.86 0 71 0 C71 0.33 71 0.66 71 1 C47.57 1 24.14 1 0 1 C0 0.67 0 0.34 0 0 Z " fill="#000000" transform="translate(130,127)"/>
<path d="M0 0 C4.14994304 1.93020607 7.46388874 4.11527766 11 7 C11.7425 7.37125 12.485 7.7425 13.25 8.125 C15 9 15 9 16 11 C17.64363134 11.72159424 19.31050386 12.39351421 21 13 C20.01 14.485 20.01 14.485 19 16 C18.32195312 15.49210937 17.64390625 14.98421875 16.9453125 14.4609375 C10.82027048 9.93078177 4.61093902 5.78587397 -2 2 C-1.34 1.34 -0.68 0.68 0 0 Z " fill="#6CB3CB" transform="translate(301,320)"/>
<path d="M0 0 C0.66 0.33 1.32 0.66 2 1 C2.40729228 3.32156597 2.74438677 5.6568787 3 8 C3.66 8 4.32 8 5 8 C8 13.625 8 13.625 8 17 C7.01 17.33 6.02 17.66 5 18 C4.731875 17.0925 4.46375 16.185 4.1875 15.25 C3.20023627 12.05461402 3.20023627 12.05461402 1.4375 9.9375 C-0.29500103 7.60238992 -0.7050574 5.87569035 -1 3 C-0.67 2.01 -0.34 1.02 0 0 Z " fill="#64ABC5" transform="translate(137,186)"/>
<path d="M0 0 C0.33 0.66 0.66 1.32 1 2 C0.67 2.66 0.34 3.32 0 4 C0.66 4 1.32 4 2 4 C2 4.66 2 5.32 2 6 C3.32 6 4.64 6 6 6 C5.67 6.99 5.34 7.98 5 9 C3.2063257 7.8782037 1.4151227 6.75245517 -0.375 5.625 C-1.87160156 4.68527344 -1.87160156 4.68527344 -3.3984375 3.7265625 C-6 2 -6 2 -8 0 C-4.97878489 -0.97110486 -2.99536737 -1.13617383 0 0 Z " fill="#65AEC9" transform="translate(276,300)"/>
<path d="M0 0 C6.93 0 13.86 0 21 0 C20.67 0.99 20.34 1.98 20 3 C17.22829605 2.88613541 14.45821954 2.75939222 11.6875 2.625 C10.90181641 2.5940625 10.11613281 2.563125 9.30664062 2.53125 C8.54931641 2.49257812 7.79199219 2.45390625 7.01171875 2.4140625 C6.31522217 2.3826416 5.61872559 2.3512207 4.90112305 2.31884766 C3 2 3 2 0 0 Z " fill="#C7C7C7" transform="translate(202,106)"/>
<path d="M0 0 C3.89006773 1.38780795 6.96558708 3.2152227 10.3125 5.625 C11.19550781 6.25664062 12.07851562 6.88828125 12.98828125 7.5390625 C13.65214844 8.02117187 14.31601563 8.50328125 15 9 C14.34 9.66 13.68 10.32 13 11 C10.82754427 9.54970675 8.66219911 8.09044056 6.5 6.625 C5.87996094 6.2125 5.25992188 5.8 4.62109375 5.375 C3.04474379 4.30100332 1.51791243 3.15511468 0 2 C0 1.34 0 0.68 0 0 Z " fill="#7CBACF" transform="translate(202,254)"/>
<path d="M0 0 C2.29674382 1.26230959 4.58714709 2.53425733 6.875 3.8125 C7.52597656 4.16892578 8.17695313 4.52535156 8.84765625 4.89257812 C12.06597903 6.70081103 13.9196783 7.87951745 16 11 C14.35 10.67 12.7 10.34 11 10 C11 9.34 11 8.68 11 8 C9.329375 7.566875 9.329375 7.566875 7.625 7.125 C3.81061477 5.94122527 2.70629991 5.33412205 0.875 1.875 C0.58625 1.25625 0.2975 0.6375 0 0 Z " fill="#5F9CCB" transform="translate(199,278)"/>
<path d="M0 0 C0.66 0 1.32 0 2 0 C3.34331654 1.99330842 4.67594012 3.99384866 6 6 C6.99 6.66 7.98 7.32 9 8 C8.67 9.32 8.34 10.64 8 12 C1.56111567 7.0680886 1.56111567 7.0680886 1 3 C0.34 2.34 -0.32 1.68 -1 1 C-0.67 0.67 -0.34 0.34 0 0 Z " fill="#71BBD7" transform="translate(147,208)"/>
<path d="M0 0 C3.62276315 1.3255581 6.63505348 2.94346955 9.8125 5.125 C10.60269531 5.66382813 11.39289063 6.20265625 12.20703125 6.7578125 C12.79871094 7.16773438 13.39039063 7.57765625 14 8 C13.01 8.495 13.01 8.495 12 9 C9.96855359 8.06553465 7.96466413 7.06775224 6 6 C6 5.34 6 4.68 6 4 C4.35 3.67 2.7 3.34 1 3 C0.67 2.01 0.34 1.02 0 0 Z " fill="#73ABD1" transform="translate(220,292)"/>
<path d="M0 0 C1.32 0 2.64 0 4 0 C4.33 0.66 4.66 1.32 5 2 C6.65051288 3.11634152 6.65051288 3.11634152 8.5625 4.125 C10.2640625 5.053125 10.2640625 5.053125 12 6 C11.01 6.66 10.02 7.32 9 8 C7.49460339 7.05016642 5.99579653 6.08988109 4.5 5.125 C3.6646875 4.59132813 2.829375 4.05765625 1.96875 3.5078125 C1.3190625 3.01023437 0.669375 2.51265625 0 2 C0 1.34 0 0.68 0 0 Z " fill="#73B9CF" transform="translate(234,276)"/>
<path d="M0 0 C0.33 0 0.66 0 1 0 C1 8.58 1 17.16 1 26 C0.67 26 0.34 26 0 26 C0 17.42 0 8.84 0 0 Z " fill="#171A1D" transform="translate(127,130)"/>
<path d="M0 0 C3.14737182 0.69941596 6.02588876 1.76078698 9 3 C9 3.99 9 4.98 9 6 C5.21213403 5.4739075 2.82847776 4.61896089 0 2 C0 1.34 0 0.68 0 0 Z " fill="#6EB9D3" transform="translate(246,284)"/>
<path d="M0 0 C2.66355234 -0.39169887 4.39224373 -0.40564529 6.66796875 1.11328125 C8.1510888 2.36389317 9.57954352 3.67864514 11 5 C10.34 5.66 9.68 6.32 9 7 C7.4972763 6.02501855 5.99788037 5.04490611 4.5 4.0625 C3.6646875 3.51722656 2.829375 2.97195312 1.96875 2.41015625 C1.3190625 1.94480469 0.669375 1.47945312 0 1 C0 0.67 0 0.34 0 0 Z " fill="#6BA2BA" transform="translate(191,248)"/>
<path d="M0 0 C2.475 0.99 2.475 0.99 5 2 C5 2.66 5 3.32 5 4 C6.32 4.66 7.64 5.32 9 6 C8.34 6.66 7.68 7.32 7 8 C4.03 6.02 1.06 4.04 -2 2 C-1.34 1.34 -0.68 0.68 0 0 Z " fill="#65A8BF" transform="translate(170,232)"/>
<path d="M0 0 C0.66 0 1.32 0 2 0 C3.35386936 1.65002828 4.68678142 3.3174387 6 5 C6.66 5.33 7.32 5.66 8 6 C7.67 6.99 7.34 7.98 7 9 C5.82460004 8.07347299 4.65989423 7.13336613 3.5 6.1875 C2.52546875 5.40439453 2.52546875 5.40439453 1.53125 4.60546875 C0 3 0 3 0 0 Z " fill="#7FBFCD" transform="translate(156,220)"/>
<path d="M0 0 C2.31 0.33 4.62 0.66 7 1 C7.33 2.32 7.66 3.64 8 5 C4.40142046 5 2.90548882 4.04169485 0 2 C0 1.34 0 0.68 0 0 Z " fill="#60AAC2" transform="translate(216,264)"/>
<path d="M0 0 C4.13126473 1.92151848 7.53258866 4.04250209 11 7 C8.36 6.67 5.72 6.34 3 6 C2.67 5.01 2.34 4.02 2 3 C1.34 2.67 0.68 2.34 0 2 C0 1.34 0 0.68 0 0 Z " fill="#76AED5" transform="translate(247,309)"/>
<path d="M0 0 C7.59 0 15.18 0 23 0 C23 0.33 23 0.66 23 1 C15.41 1 7.82 1 0 1 C0 0.67 0 0.34 0 0 Z " fill="#000311" transform="translate(82,127)"/>
<path d="M0 0 C4.63118016 1.82809743 7.09086234 2.90076057 10 7 C9.01 7 8.02 7 7 7 C7 6.34 7 5.68 7 5 C5.35 4.67 3.7 4.34 2 4 C2 3.34 2 2.68 2 2 C1.34 2 0.68 2 0 2 C0 1.34 0 0.68 0 0 Z " fill="#72A2C6" transform="translate(171,260)"/>
<path d="M0 0 C2.475 0.99 2.475 0.99 5 2 C5 3.32 5 4.64 5 6 C2.03 5.505 2.03 5.505 -1 5 C-0.34 4.34 0.32 3.68 1 3 C0.67 2.01 0.34 1.02 0 0 Z " fill="#639ECC" transform="translate(277,329)"/>
<path d="M0 0 C1.98 0.99 3.96 1.98 6 3 C5.67 3.99 5.34 4.98 5 6 C1.535 4.02 1.535 4.02 -2 2 C-1.34 1.34 -0.68 0.68 0 0 Z " fill="#5AA0BA" transform="translate(301,320)"/>
<path d="M0 0 C3.99500618 1.3697164 6.80009492 3.25722422 10 6 C9.01 6.33 8.02 6.66 7 7 C7 6.34 7 5.68 7 5 C5.5459375 4.5978125 5.5459375 4.5978125 4.0625 4.1875 C3.051875 3.795625 2.04125 3.40375 1 3 C0.67 2.01 0.34 1.02 0 0 Z " fill="#71ACD2" transform="translate(158,252)"/>
<path d="M0 0 C1.65 0.33 3.3 0.66 5 1 C4.67 2.32 4.34 3.64 4 5 C2.35 4.01 0.7 3.02 -1 2 C-0.67 1.34 -0.34 0.68 0 0 Z " fill="#60ADC6" transform="translate(286,310)"/>
<path d="M0 0 C2.97 0.33 5.94 0.66 9 1 C7.515 2.485 7.515 2.485 6 4 C4.02 3.01 2.04 2.02 0 1 C0 0.67 0 0.34 0 0 Z " fill="#5B9CBE" transform="translate(262,296)"/>
<path d="M0 0 C3.71599191 -0.20086443 4.77208445 -0.1519437 8 2 C7.67 2.99 7.34 3.98 7 5 C3.535 3.02 3.535 3.02 0 1 C0 0.67 0 0.34 0 0 Z " fill="#5B9CB3" transform="translate(225,271)"/>
<path d="M0 0 C0.33 0 0.66 0 1 0 C1 5.28 1 10.56 1 16 C0.67 16 0.34 16 0 16 C0 10.72 0 5.44 0 0 Z " fill="#060A26" transform="translate(109,140)"/>
<path d="M0 0 C0.33 0 0.66 0 1 0 C1 2.64 1 5.28 1 8 C0.67 8 0.34 8 0 8 C0 5.36 0 2.72 0 0 Z " fill="#05173E" transform="translate(110,160)"/>
<path d="M0 0 C0.33 0 0.66 0 1 0 C1 2.31 1 4.62 1 7 C0.67 7 0.34 7 0 7 C0 4.69 0 2.38 0 0 Z " fill="#01031D" transform="translate(111,170)"/>
<path d="M0 0 C0.33 0 0.66 0 1 0 C1 1.65 1 3.3 1 5 C0.67 5 0.34 5 0 5 C0 3.35 0 1.7 0 0 Z " fill="#0A211D" transform="translate(112,177)"/>
<path d="M0 0 C0.33 0 0.66 0 1 0 C1 1.65 1 3.3 1 5 C0.67 5 0.34 5 0 5 C0 3.35 0 1.7 0 0 Z " fill="#133330" transform="translate(128,158)"/>
<path d="M0 0 C1 4 1 4 1 4 Z " fill="#0D3F4C" transform="translate(129,164)"/>
<path d="" fill="#02012F" transform="translate(0,0)"/>
<path d="" fill="#0C2B30" transform="translate(0,0)"/>
<path d="M0 0 C2 1 2 1 2 1 Z " fill="#01083A" transform="translate(234,299)"/>
<path d="M0 0 C2 1 2 1 2 1 Z " fill="#000105" transform="translate(231,297)"/>
<path d="M0 0 C2 1 2 1 2 1 Z " fill="#000406" transform="translate(223,292)"/>
<path d="M0 0 C2 1 2 1 2 1 Z " fill="#000A08" transform="translate(220,290)"/>
<path d="M0 0 C2 1 2 1 2 1 Z " fill="#02060F" transform="translate(217,288)"/>
<path d="M0 0 C2 1 2 1 2 1 Z " fill="#00010E" transform="translate(215,287)"/>
<path d="M0 0 C2 1 2 1 2 1 Z " fill="#000107" transform="translate(211,284)"/>
<path d="M0 0 C2 1 2 1 2 1 Z " fill="#050C17" transform="translate(203,279)"/>
<path d="M0 0 C2 1 2 1 2 1 Z " fill="#020137" transform="translate(153,247)"/>
<path d="M0 0 C2 1 2 1 2 1 Z " fill="#000515" transform="translate(150,245)"/>
<path d="M0 0 C2 1 2 1 2 1 Z " fill="#000436" transform="translate(147,243)"/>
<path d="" fill="#000021" transform="translate(0,0)"/>
<path d="" fill="#000D3B" transform="translate(0,0)"/>
<path d="" fill="#000009" transform="translate(0,0)"/>
<path d="" fill="#134151" transform="translate(0,0)"/>
<path d="" fill="#000F44" transform="translate(0,0)"/>
<path d="" fill="#010D40" transform="translate(0,0)"/>
<path d="" fill="#000637" transform="translate(0,0)"/>
<path d="" fill="#040A38" transform="translate(0,0)"/>
<path d="" fill="#080928" transform="translate(0,0)"/>
<path d="" fill="#0E3D44" transform="translate(0,0)"/>
<path d="" fill="#040545" transform="translate(0,0)"/>
<path d="" fill="#050531" transform="translate(0,0)"/>
<path d="" fill="#000002" transform="translate(0,0)"/>
<path d="" fill="#00000F" transform="translate(0,0)"/>
<path d="" fill="#00040C" transform="translate(0,0)"/>
<path d="" fill="#000004" transform="translate(0,0)"/>
<path d="" fill="#1D7177" transform="translate(0,0)"/>
<path d="" fill="#000D38" transform="translate(0,0)"/>
<path d="" fill="#00012A" transform="translate(0,0)"/>
<path d="" fill="#000409" transform="translate(0,0)"/>
<path d="" fill="#4F5C61" transform="translate(0,0)"/>
<path d="" fill="#287073" transform="translate(0,0)"/>
<path d="" fill="#000A55" transform="translate(0,0)"/>
<path d="" fill="#000016" transform="translate(0,0)"/>
<path d="" fill="#061547" transform="translate(0,0)"/>
<path d="" fill="#000024" transform="translate(0,0)"/>
<path d="" fill="#000515" transform="translate(0,0)"/>
<path d="" fill="#000C4D" transform="translate(0,0)"/>
<path d="" fill="#001116" transform="translate(0,0)"/>
<path d="" fill="#2D6D8A" transform="translate(0,0)"/>
<path d="" fill="#00024D" transform="translate(0,0)"/>
<path d="" fill="#000713" transform="translate(0,0)"/>
<path d="" fill="#07130F" transform="translate(0,0)"/>
<path d="" fill="#000211" transform="translate(0,0)"/>
<path d="" fill="#000250" transform="translate(0,0)"/>
<path d="" fill="#00070F" transform="translate(0,0)"/>
<path d="" fill="#00000D" transform="translate(0,0)"/>
<path d="" fill="#000008" transform="translate(0,0)"/>
<path d="" fill="#000000" transform="translate(0,0)"/>
<path d="" fill="#000207" transform="translate(0,0)"/>
<path d="" fill="#000105" transform="translate(0,0)"/>
<path d="" fill="#000919" transform="translate(0,0)"/>
<path d="" fill="#00010C" transform="translate(0,0)"/>
<path d="" fill="#000005" transform="translate(0,0)"/>
<path d="" fill="#000007" transform="translate(0,0)"/>
<path d="" fill="#000007" transform="translate(0,0)"/>
<path d="" fill="#00060C" transform="translate(0,0)"/>
<path d="" fill="#000000" transform="translate(0,0)"/>
<path d="" fill="#000210" transform="translate(0,0)"/>
<path d="" fill="#000000" transform="translate(0,0)"/>
<path d="" fill="#000003" transform="translate(0,0)"/>
<path d="" fill="#00000A" transform="translate(0,0)"/>
<path d="" fill="#7C7E80" transform="translate(0,0)"/>
<path d="" fill="#000305" transform="translate(0,0)"/>
<path d="" fill="#05090A" transform="translate(0,0)"/>
<path d="" fill="#4F606A" transform="translate(0,0)"/>
<path d="" fill="#00000D" transform="translate(0,0)"/>
<path d="" fill="#00030A" transform="translate(0,0)"/>
<path d="" fill="#0A1241" transform="translate(0,0)"/>
<path d="" fill="#000234" transform="translate(0,0)"/>
<path d="" fill="#010200" transform="translate(0,0)"/>
<path d="" fill="#2F6779" transform="translate(0,0)"/>
<path d="" fill="#00111C" transform="translate(0,0)"/>
<path d="" fill="#1D6D76" transform="translate(0,0)"/>
<path d="" fill="#00030D" transform="translate(0,0)"/>
<path d="" fill="#000004" transform="translate(0,0)"/>
<path d="" fill="#151531" transform="translate(0,0)"/>
<path d="" fill="#00020F" transform="translate(0,0)"/>
<path d="" fill="#000B10" transform="translate(0,0)"/>
<path d="" fill="#00050A" transform="translate(0,0)"/>
<path d="" fill="#586068" transform="translate(0,0)"/>
<path d="" fill="#000000" transform="translate(0,0)"/>
<path d="" fill="#00075A" transform="translate(0,0)"/>
<path d="" fill="#177283" transform="translate(0,0)"/>
<path d="" fill="#1A8189" transform="translate(0,0)"/>
<path d="" fill="#1F7B85" transform="translate(0,0)"/>
<path d="" fill="#1A6A76" transform="translate(0,0)"/>
<path d="" fill="#1E687C" transform="translate(0,0)"/>
<path d="" fill="#29738A" transform="translate(0,0)"/>
<path d="" fill="#001343" transform="translate(0,0)"/>
<path d="" fill="#01001B" transform="translate(0,0)"/>
<path d="" fill="#00004C" transform="translate(0,0)"/>
<path d="" fill="#000A35" transform="translate(0,0)"/>
<path d="" fill="#717B8E" transform="translate(0,0)"/>
<path d="" fill="#000855" transform="translate(0,0)"/>
<path d="" fill="#00062A" transform="translate(0,0)"/>
<path d="" fill="#001D23" transform="translate(0,0)"/>
<path d="" fill="#000000" transform="translate(0,0)"/>
<path d="" fill="#1F7171" transform="translate(0,0)"/>
<path d="" fill="#00000A" transform="translate(0,0)"/>
<path d="" fill="#000C62" transform="translate(0,0)"/>
<path d="" fill="#24727C" transform="translate(0,0)"/>
<path d="" fill="#00000B" transform="translate(0,0)"/>
<path d="" fill="#000000" transform="translate(0,0)"/>
<path d="" fill="#000D0C" transform="translate(0,0)"/>
<path d="" fill="#186675" transform="translate(0,0)"/>
<path d="" fill="#7F8C90" transform="translate(0,0)"/>
<path d="" fill="#070707" transform="translate(0,0)"/>
</svg>
